<svg width="100" height="49" viewBox="0 0 100 49" fill="none" xmlns="http://www.w3.org/2000/svg">
<rect x="2" y="2" width="96" height="45" rx="14" fill="#352f36"/>
<rect x="2" y="2" width="96" height="45" rx="14" stroke="#f8f7f4" stroke-width="4"/>
<path d="M8 24.5C8 14.835 15.835 7 25.5 7V7C35.165 7 43 14.835 43 24.5V24.5C43 34.165 35.165 42 25.5 42V42C15.835 42 8 34.165 8 24.5V24.5Z" fill="#E0E0E0"/>
<path d="M77.4671 12C79.6381 12.4622 81.6536 13.4179 83.3352 14.7823C85.0167 16.1467 86.3124 17.8778 87.1074 19.8222C87.9025 21.7666 88.1723 23.8643 87.8931 25.9295C87.6139 27.9947 86.7941 29.9636 85.5066 31.6619C84.219 33.3601 82.5033 34.7353 80.5115 35.6656C78.5196 36.5959 76.3131 37.0526 74.0874 36.9952C71.8617 36.9378 69.6855 36.3681 67.7515 35.3366C65.8175 34.3051 64.1855 32.8436 63 31.0816C63 31.0816 71.6624 30.1395 76.087 25.3556C80.5115 20.5718 77.4671 12 77.4671 12Z" fill="#E0E0E0"/>
<path d="M70.8613 24.8174L71.4095 26.5044H73.1832L71.7482 27.547L72.2964 29.2339L70.8613 28.1913L69.4263 29.2339L69.9744 27.547L68.5394 26.5044H70.3132L70.8613 24.8174Z" fill="#D9D9D9"/>
<path d="M75.7441 15.418L76.2923 17.1049H78.0661L76.631 18.1475L77.1792 19.8345L75.7441 18.7919L74.3091 19.8345L74.8572 18.1475L73.4222 17.1049H75.196L75.7441 15.418Z" fill="#D9D9D9"/>
</svg>
