<svg width="100" height="49" viewBox="0 0 100 49" fill="none" xmlns="http://www.w3.org/2000/svg">
<rect x="2" y="2" width="96" height="45" rx="14" fill="#F0F0F0"/>
<rect x="2" y="2" width="96" height="45" rx="14" stroke="black" stroke-width="4"/>
<rect x="57" y="7" width="35" height="35" rx="17.5" fill="black"/>
<path d="M30.8918 24.1892C30.8918 27.5936 28.0946 30.3694 24.6242 30.3694C21.1539 30.3694 18.3567 27.5936 18.3567 24.1892C18.3567 20.7849 21.1539 18.0091 24.6242 18.0091C28.0946 18.0091 30.8918 20.7849 30.8918 24.1892Z" stroke="black" stroke-width="1.5"/>
<path d="M11.0234 24.6465H13.2164H15.4094" stroke="black" stroke-width="1.5" stroke-linecap="round"/>
<path d="M33.7148 24.6557H35.9078H38.1008" stroke="black" stroke-width="1.5" stroke-linecap="round"/>
<path d="M35.7154 34.3372L34.1647 32.8059L32.614 31.2745" stroke="black" stroke-width="1.5" stroke-linecap="round"/>
<path d="M17.2943 17.2284L15.7436 15.697L14.193 14.1657" stroke="black" stroke-width="1.5" stroke-linecap="round"/>
<path d="M14.193 34.3372L15.7437 32.8059L17.2943 31.2745" stroke="black" stroke-width="1.5" stroke-linecap="round"/>
<path d="M32.614 17.8646L34.1647 16.3332L35.7154 14.8018" stroke="black" stroke-width="1.5" stroke-linecap="round"/>
<path d="M24.5 14.8177L24.5 12.652L24.5 10.4863" stroke="black" stroke-width="1.5" stroke-linecap="round"/>
<path d="M24.5 38.0473L24.5 35.8816L24.5 33.7159" stroke="black" stroke-width="1.5" stroke-linecap="round"/>
</svg>
