<svg width="32 " height="32" viewBox="0 0 500 500" fill="none" xmlns="http://www.w3.org/2000/svg">
<path d="M500 250C500 388.071 388.071 500 250 500C111.929 500 0 388.071 0 250C0 111.929 111.929 0 250 0C388.071 0 500 111.929 500 250Z" fill="#A7CF5D"/>
<path d="M200 270C200 258.954 208.954 250 220 250H280C291.046 250 300 258.954 300 270V270H200V270Z" fill="#F9EBC4"/>
<path d="M200 275H300V335C300 343.284 293.284 350 285 350H215C206.716 350 200 343.284 200 335V275Z" fill="#F9EBC4"/>
<g filter="url(#filter0_b_2_18)">
<path d="M210 293L228.5 311.5L210 332.5" stroke="#A7CF5D" stroke-width="5" stroke-linecap="round"/>
</g>
<path d="M233 332H276.5" stroke="#A7CF5D" stroke-width="5" stroke-linecap="round"/>
<path d="M167.721 202.709C167.189 201.646 167.156 200.186 167.621 198.326C168.086 196.467 168.75 194.541 169.613 192.549C170.543 190.557 171.506 188.631 172.502 186.771C173.498 184.912 174.262 183.385 174.793 182.189C174.992 181.791 175.125 181.459 175.191 181.193C175.324 180.928 175.424 180.629 175.49 180.297C175.623 179.965 175.756 179.6 175.889 179.201C176.021 178.803 176.254 178.238 176.586 177.508C176.984 176.645 177.615 175.316 178.479 173.523C179.408 171.664 180.438 169.605 181.566 167.348C182.695 165.023 183.857 162.6 185.053 160.076C186.314 157.553 187.477 155.162 188.539 152.904C189.668 150.58 190.664 148.521 191.527 146.729C192.457 144.869 193.121 143.508 193.52 142.645V140.354C192.324 140.154 191.162 140.221 190.033 140.553C188.904 140.885 187.809 141.35 186.746 141.947C185.75 142.545 184.754 143.242 183.758 144.039C182.828 144.77 181.965 145.434 181.168 146.031C180.238 145.832 179.707 145.4 179.574 144.736C179.441 144.072 179.508 143.375 179.773 142.645C180.039 141.914 180.404 141.25 180.869 140.652C181.4 139.988 181.865 139.523 182.264 139.258C189.17 134.941 196.574 132.086 204.477 130.691C212.379 129.23 220.381 129.098 228.482 130.293C233.396 132.75 236.75 135.373 238.543 138.162C240.336 140.885 240.967 143.674 240.436 146.529C239.971 149.385 238.51 152.207 236.053 154.996C233.662 157.785 230.674 160.475 227.088 163.064C223.568 165.588 219.65 167.945 215.334 170.137C211.084 172.328 206.834 174.221 202.584 175.814C198.4 177.408 194.416 178.67 190.631 179.6C186.846 180.463 183.691 180.895 181.168 180.895C179.906 182.887 178.877 184.547 178.08 185.875C177.283 187.137 176.652 188.266 176.188 189.262C175.723 190.191 175.324 191.088 174.992 191.951C174.727 192.748 174.428 193.678 174.096 194.74C173.83 195.736 173.465 196.965 173 198.426C172.535 199.887 171.904 201.713 171.107 203.904L170.012 205C169.746 204.867 169.314 204.535 168.717 204.004C168.186 203.406 167.854 202.975 167.721 202.709ZM184.555 175.217C187.344 175.682 190.299 175.615 193.42 175.018C196.541 174.354 199.629 173.424 202.684 172.229C205.805 171.033 208.793 169.705 211.648 168.244C214.504 166.717 217.094 165.322 219.418 164.061C224.996 160.939 229.146 157.918 231.869 154.996C234.658 152.008 236.352 149.252 236.949 146.729C237.547 144.139 237.248 141.848 236.053 139.855C234.924 137.863 233.197 136.27 230.873 135.074C228.615 133.812 225.959 133.016 222.904 132.684C219.916 132.352 216.861 132.584 213.74 133.381C210.686 134.178 207.764 135.605 204.975 137.664C202.186 139.723 199.861 142.512 198.002 146.031C197.338 147.293 196.541 148.854 195.611 150.713C194.682 152.506 193.719 154.398 192.723 156.391C191.727 158.383 190.73 160.375 189.734 162.367C188.738 164.293 187.842 166.053 187.045 167.646C186.314 169.174 185.717 170.436 185.252 171.432C184.787 172.428 184.555 172.959 184.555 173.025V175.217ZM227.088 203.904C229.811 195.139 232.268 188.199 234.459 183.086C236.717 177.906 238.576 174.287 240.037 172.229C241.564 170.17 242.594 169.506 243.125 170.236C243.656 170.967 243.59 172.826 242.926 175.814C242.328 178.803 241 182.82 238.941 187.867C236.949 192.848 234.127 198.559 230.475 205C229.943 205.199 229.312 205.232 228.582 205.1C227.852 204.967 227.354 204.568 227.088 203.904ZM244.52 155.992C244.387 155.66 244.32 155.062 244.32 154.199C244.32 153.336 244.387 152.805 244.52 152.605C246.047 152.074 247.209 152.008 248.006 152.406C248.803 152.805 249.301 153.402 249.5 154.199C249.699 154.93 249.666 155.727 249.4 156.59C249.201 157.453 248.836 158.117 248.305 158.582C247.773 158.98 247.143 159.047 246.412 158.781C245.748 158.449 245.117 157.52 244.52 155.992ZM254.182 203.904C253.385 203.373 253.352 202.676 254.082 201.812C254.879 200.883 256.107 199.92 257.768 198.924C259.494 197.861 261.486 196.766 263.744 195.637C266.002 194.508 268.16 193.445 270.219 192.449C272.344 191.453 274.203 190.59 275.797 189.859C277.391 189.062 278.42 188.465 278.885 188.066C281.076 186.207 282.205 184.68 282.271 183.484C282.404 182.223 281.873 181.227 280.678 180.496C279.482 179.699 277.789 179.102 275.598 178.703C273.473 178.238 271.248 177.84 268.924 177.508C266.666 177.109 264.475 176.711 262.35 176.312C260.291 175.914 258.73 175.383 257.668 174.719C256.605 174.055 256.24 173.191 256.572 172.129C256.971 171 258.432 169.572 260.955 167.846C261.885 167.182 263.246 166.219 265.039 164.957C266.832 163.695 268.758 162.4 270.816 161.072C272.941 159.744 275.033 158.549 277.092 157.486C279.15 156.424 280.877 155.727 282.271 155.395C283.002 155.262 283.732 155.328 284.463 155.594C285.26 155.859 285.891 156.258 286.355 156.789C286.82 157.254 287.02 157.785 286.953 158.383C286.953 158.98 286.521 159.512 285.658 159.977C281.873 162.102 278.221 164.094 274.701 165.953C271.248 167.812 267.762 169.938 264.242 172.328C264.043 172.859 264.076 173.324 264.342 173.723C264.674 174.121 265.039 174.42 265.438 174.619C272.477 175.35 277.756 176.379 281.275 177.707C284.861 179.035 287.119 180.496 288.049 182.09C289.045 183.684 288.945 185.377 287.75 187.17C286.555 188.963 284.762 190.723 282.371 192.449C280.047 194.176 277.357 195.803 274.303 197.33C271.248 198.857 268.293 200.152 265.438 201.215C262.648 202.277 260.191 203.074 258.066 203.605C255.941 204.137 254.646 204.236 254.182 203.904ZM298.607 203.904C295.818 202.775 294.059 201.082 293.328 198.824C292.664 196.566 292.697 194.076 293.428 191.354C294.158 188.564 295.42 185.709 297.213 182.787C299.006 179.799 300.998 177.076 303.189 174.619C305.381 172.162 307.572 170.104 309.764 168.443C312.021 166.717 313.947 165.754 315.541 165.555C319.658 165.023 322.879 165.322 325.203 166.451C327.594 167.514 329.221 169.074 330.084 171.133C330.947 173.191 331.18 175.615 330.781 178.404C330.383 181.127 329.486 183.883 328.092 186.672C326.764 189.461 325.004 192.15 322.812 194.74C320.688 197.33 318.297 199.521 315.641 201.314C313.051 203.041 310.295 204.203 307.373 204.801C304.451 205.332 301.529 205.033 298.607 203.904ZM297.512 198.227C298.043 200.352 299.172 201.547 300.898 201.812C302.625 202.012 304.617 201.58 306.875 200.518C309.199 199.389 311.623 197.795 314.146 195.736C316.67 193.611 318.961 191.32 321.02 188.863C323.145 186.406 324.871 183.949 326.199 181.492C327.594 178.969 328.258 176.777 328.191 174.918C328.191 173.059 327.295 171.664 325.502 170.734C323.775 169.738 320.854 169.539 316.736 170.137C315.807 171 314.611 172.062 313.15 173.324C311.689 174.52 310.162 175.848 308.568 177.309C307.041 178.77 305.514 180.363 303.986 182.09C302.459 183.75 301.131 185.477 300.002 187.27C298.873 189.062 298.043 190.889 297.512 192.748C297.047 194.607 297.047 196.434 297.512 198.227Z" fill="#F9EBC4"/>
<defs>
<filter id="filter0_b_2_18" x="203.5" y="286.5" width="32.4272" height="52.5" filterUnits="userSpaceOnUse" color-interpolation-filters="sRGB">
<feFlood flood-opacity="0" result="BackgroundImageFix"/>
<feGaussianBlur in="BackgroundImageFix" stdDeviation="2"/>
<feComposite in2="SourceAlpha" operator="in" result="effect1_backgroundBlur_2_18"/>
<feBlend mode="normal" in="SourceGraphic" in2="effect1_backgroundBlur_2_18" result="shape"/>
</filter>
</defs>
</svg>
