<?xml version="1.0" encoding="UTF-8"?>
<svg viewBox="0 0 924.09 661.63" xmlns="http://www.w3.org/2000/svg">
 <g transform="matrix(1.2419 0 0 .62862 -62.708 -46.954)">
  <path d="m50.493 227.45v157.03l371.62 214.56-371.62-371.59z" fill="none"/>
 </g>
 <g stroke-width=".216">
  <g stroke="#000">
   <path d="m35.304 211.14l3.354 12.11 3.309 11.904 3.334 11.959 3.358 12.007 3.379 12.053 3.4 12.095 3.418 12.133 3.433 12.167 3.449 12.198 3.4611 12.224 3.472 12.246 3.481 12.266 3.488 12.28 3.494 12.292 3.4971 12.3 3.499 12.303 3.499 12.303 3.4971 12.298 3.493 12.291 3.487 12.28 3.481 12.265 3.4711 12.24 3.4609 12.22 3.447 12.2 3.433 12.16 3.417 12.13 3.3981 12.09 3.377 12.05 3.3571 12 3.3319 11.95 3.307 11.9 3.317 11.98 0.3981 1.1199 0.605 1.1799 0.74 1.0701 0.851 0.98 0.946 0.8801 1.026 0.8 1.101 0.72 1.172 0.6499 1.238 0.5901 1.302 0.54 1.3669 0.48 1.4291 0.4299 1.4919 0.3799 1.55 0.3301 1.61 0.29 1.667 0.24 1.723 0.1899 1.776 0.1401 1.828 0.0999 1.877 0.05h1.925l1.968-0.04 2.012-0.0999 2.052-0.1501 2.09-0.2 2.124-0.25 2.157-0.3 2.187-0.3599 2.214-0.4202 2.239-0.47 2.26-0.52 2.067-0.53 20.724-3.3899 20.846-3.48 20.792-3.54 20.742-3.6001 20.695-3.6499 20.652-3.7 20.614-3.74 20.579-3.78 20.546-3.8101 20.52-3.8401 20.496-3.8699 20.476-3.8899 20.46-3.9102 20.448-3.9199 20.438-3.9299 20.435-3.9302 20.433-3.9399 20.437-3.9199 20.443-3.9202 20.449-3.9099 20.47-3.8899 20.49-3.8701 20.5-3.8401 20.54-3.8098 20.56-3.78 20.6-3.73 20.63-3.7 20.68-3.6401 20.71-3.6001 20.77-3.5298 20.82-3.48 21.21-3.4702 1.66-0.5598 1.47-0.6201 1.4701-0.72 1.46-0.8401 1.46-0.9399 1.4401-1.05 1.4199-1.1599 1.41-1.27 1.38-1.37 1.35-1.48 1.3301-1.6 1.2799-1.7 1.25-1.8101 1.2101-1.91 1.1499-2.0299 1.1101-2.1401 1.0499-2.26 0.99-2.3599 0.92-2.4701 0.86-2.5861 0.78-2.699 0.71-2.809 0.62-2.9249 0.54-3.0381 0.45-3.152 0.35-3.267 0.25-3.3831 0.16-3.498 0.04-3.6149-0.0601-3.732-0.1899-3.85-0.35-4.713-187.38-362.92-639.55 98.734-2.746 0.55-2.564 0.637-2.397 0.73-2.239 0.826-2.083 0.927-1.934 1.036-1.781 1.145-1.63 1.26-1.474 1.372-1.313 1.48-1.149 1.578-0.985 1.666-0.827 1.74-0.674 1.806-0.535 1.86-0.405 1.913-0.288 1.962-0.186 2.008-0.091 2.06-0.01 2.109 0.064 2.165 0.129 2.221 0.186 2.279 0.235 2.339 0.277 2.403 0.312 2.466 0.34 2.532 0.361 2.599 0.377 2.668 0.385 2.737 0.387 2.807 0.421 3.16z"/>
   <path d="m36.274 210.94l3.336 12.044 3.309 11.903 3.334 11.958 3.3571 12.006 3.38 12.053 3.3989 12.095 3.418 12.132 3.433 12.166 3.449 12.198 3.46 12.223 3.472 12.246 3.481 12.266 3.488 12.28 3.494 12.292 3.4969 12.3 3.499 12.303 3.499 12.303 3.4969 12.298 3.493 12.291 3.488 12.28 3.481 12.265 3.4709 12.24 3.4601 12.22 3.448 12.2 3.433 12.16 3.417 12.13 3.3979 12.09 3.3781 12.05 3.356 12.01 3.333 11.95 3.307 11.9 3.308 11.94 0.364 1.03 0.545 1.0598 0.673 0.9702 0.78 0.8999 0.876 0.8201 0.96 0.74 1.0381 0.6799 1.1139 0.6201 1.1841 0.5698 1.2539 0.51 1.321 0.47 1.3881 0.4102 1.453 0.3799 1.5139 0.3201 1.5761 0.28 1.636 0.24 1.693 0.1899 1.748 0.1401 1.8009 0.0898 1.8511 0.05 1.8989 0.01 1.9441-0.05 1.989-0.0999 2.0289-0.1401 2.067-0.2 2.1021-0.25 2.135-0.3 2.1649-0.3501 2.193-0.4099 2.217-0.47 2.24-0.52 2.098-0.54 20.766-3.3899 20.843-3.49 20.788-3.54 20.739-3.5901 20.693-3.6499 20.65-3.7 20.612-3.74 20.576-3.78 20.545-3.8101 20.519-3.8401 20.494-3.8699 20.476-3.8901 20.458-3.9099 20.448-3.9199 20.438-3.9302 20.434-3.9299 20.434-3.9399 20.437-3.9299 20.443-3.9102 20.455-3.9099 20.47-3.8901 20.48-3.8699 20.51-3.8401 20.54-3.8098 20.56-3.78 20.6-3.73 20.64-3.7002 20.68-3.6499 20.72-3.5901 20.77-3.5398 20.82-3.4802 21.13-3.45 1.55-0.53 1.41-0.5898 1.4199-0.7 1.41-0.8 1.41-0.9202 1.39-1.0099 1.3899-1.13 1.3701-1.23 1.34-1.3401 1.33-1.45 1.29-1.5601 1.26-1.6599 1.23-1.78 1.1799-1.88 1.14-2 1.0801-2.1 1.0399-2.21 0.9701-2.3301 0.9099-2.4399 0.8501-2.5491 0.7699-2.663 0.6901-2.776 0.62-2.89 0.53-3.004 0.45-3.1199 0.35-3.2351 0.25-3.351 0.15-3.4659 0.04-3.5861-0.0601-3.702-0.1799-3.821-0.3401-4.499-186.96-362.11-638.83 98.623-2.702 0.541-2.518 0.626-2.345 0.713-2.181 0.805-2.022 0.9-1.866 1-1.713 1.101-1.56 1.206-1.406 1.309-1.25 1.409-1.094 1.502-0.938 1.586-0.789 1.662-0.647 1.729-0.514 1.79-0.391 1.849-0.28 1.904-0.181 1.959-0.089 2.016-0.01 2.073 0.063 2.134 0.128 2.195 0.184 2.258 0.233 2.323 0.275 2.39 0.311 2.457 0.339 2.526 0.361 2.596 0.377 2.667 0.386 2.738 0.387 2.811 0.412 3.095z"/>
   <path d="m37.245 210.74l3.317 11.977 3.308 11.903 3.334 11.957 3.3569 12.006 3.38 12.052 3.399 12.094 3.417 12.132 3.434 12.166 3.448 12.197 3.4611 12.223 3.472 12.246 3.48 12.265 3.488 12.28 3.494 12.292 3.497 12.299 3.499 12.304 3.499 12.302 3.497 12.299 3.493 12.292 3.488 12.279 3.481 12.265 3.4711 12.24 3.4609 12.23 3.447 12.19 3.434 12.17 3.416 12.13 3.399 12.09 3.3779 12.05 3.3571 12 3.332 11.95 3.308 11.9 3.298 11.91 0.3311 0.9399 0.486 0.9402 0.604 0.8799 0.71 0.8101 0.806 0.75 0.8929 0.7 0.9761 0.6399 1.0549 0.5801 1.1321 0.54 1.204 0.5 1.276 0.45 1.3459 0.4001 1.415 0.3599 1.478 0.3201 1.543 0.28 1.604 0.23 1.663 0.1799 1.7201 0.1399 1.7729 0.1001 1.825 0.05h1.875l1.92-0.05 1.965-0.0901 2.005-0.1499 2.045-0.1899 2.08-0.25 2.113-0.3 2.1429-0.3501 2.172-0.3999 2.196-0.46 2.218-0.52 2.131-0.55 20.807-3.3999 20.84-3.48 20.785-3.54 20.736-3.6001 20.69-3.6499 20.648-3.6899 20.609-3.74 20.575-3.78 20.543-3.8101 20.517-3.8501 20.493-3.8599 20.475-3.8901 20.458-3.9099 20.446-3.9199 20.438-3.9302 20.435-3.9299 20.433-3.9399 20.437-3.9299 20.444-3.9102 20.451-3.9099 20.47-3.8901 20.49-3.8699 20.51-3.8401 20.54-3.8101 20.57-3.7798 20.6-3.74 20.64-3.6902 20.67-3.6499 20.73-3.5901 20.77-3.54 20.83-3.48 21.05-3.4399 1.4401-0.49 1.35-0.5701 1.36-0.6699 1.37-0.78 1.36-0.8799 1.35-0.9901 1.3501-1.09 1.33-1.2 1.3099-1.3101 1.29-1.4099 1.27-1.52 1.23-1.6301 1.2001-1.74 1.1599-1.85 1.12-1.96 1.0701-2.0699 1.01-2.17 0.96-2.3 0.9-2.4 0.83-2.512 0.76-2.6279 0.6901-2.7411 0.61-2.8571 0.5299-2.97 0.4401-3.0869 0.34-3.202 0.25-3.319 0.15-3.436 0.05-3.555-0.0701-3.673-0.1799-3.792-0.3201-4.285-186.54-361.3-638.1 98.51-2.659 0.534-2.471 0.614-2.293 0.697-2.124 0.784-1.959 0.872-1.8 0.964-1.6439 1.057-1.4901 1.152-1.338 1.246-1.188 1.338-1.037 1.425-0.892 1.507-0.752 1.583-0.618 1.654-0.493 1.72-0.378 1.783-0.272 1.847-0.176 1.909-0.088 1.973-9e-3 2.037 0.062 2.103 0.126 2.169 0.183 2.238 0.231 2.306 0.274 2.377 0.31 2.448 0.338 2.521 0.361 2.592 0.376 2.666 0.386 2.74 0.388 2.814 0.404 3.03z"/>
   <path d="m38.215 210.54l3.299 11.911 3.308 11.903 3.334 11.955 3.357 12.006 3.379 12.051 3.399 12.093 3.417 12.132 3.433 12.165 3.449 12.197 3.46 12.223 3.472 12.245 3.481 12.265 3.488 12.28 3.493 12.292 3.497 12.299 3.499 12.303 3.499 12.303 3.497 12.299 3.494 12.291 3.488 12.28 3.48 12.265 3.4719 12.25 3.4611 12.22 3.447 12.19 3.434 12.17 3.416 12.13 3.3989 12.09 3.3781 12.05 3.3571 12 3.3329 11.96 3.3081 11.9 3.2889 11.88 0.296 0.8301 0.427 0.8301 0.537 0.7798 0.64 0.7302 0.736 0.6899 0.8261 0.6399 0.913 0.6001 0.9971 0.5601 1.078 0.51 1.1559 0.48 1.2311 0.4299 1.304 0.3899 1.376 0.3501 1.443 0.3101 1.509 0.27 1.572 0.23 1.6331 0.1799 1.6909 0.1399 1.7471 0.0901 1.7989 0.05h1.849l1.896-0.05 1.941-0.0901 1.9829-0.1399 2.0221-0.1899 2.058-0.25 2.0909-0.29 2.1221-0.3501 2.15-0.3999 2.1739-0.46 2.197-0.51 2.163-0.5601 20.849-3.3999 20.836-3.48 20.783-3.54 20.733-3.6001 20.687-3.6499 20.646-3.6902 20.607-3.74 20.573-3.7798 20.541-3.8101 20.516-3.8501 20.492-3.8599 20.473-3.8901 20.457-3.9099 20.446-3.9202 20.438-3.9299 20.434-3.9299 20.434-3.9399 20.437-3.9302 20.444-3.9199 20.457-3.8999 20.47-3.8901 20.49-3.8699 20.51-3.8401 20.54-3.8101 20.57-3.78 20.6-3.74 20.64-3.6899 20.68-3.6499 20.73-3.6001 20.78-3.54 20.83-3.48 20.97-3.4199 1.3301-0.46 1.2899-0.54 1.3101-0.6401 1.3099-0.7499 1.3201-0.85 1.3099-0.96 1.3-1.0601 1.2999-1.1699 1.28-1.27 1.26-1.3801 1.23-1.49 1.2101-1.59 1.1799-1.71 1.13-1.8099 1.1-1.9202 1.05-2.0299 1-2.14 0.9399-2.26 0.89-2.366 0.8201-2.479 0.75-2.593 0.6799-2.707 0.6-2.822 0.52-2.937 0.4401-3.053 0.34-3.1699 0.25-3.2881 0.14-3.405 0.05-3.5239-0.0701-3.644-0.17-3.763-0.3099-4.071-186.13-360.49-637.37 98.398-2.615 0.525-2.424 0.602-2.241 0.682-2.067 0.762-1.896 0.845-1.734 0.928-1.574 1.013-1.421 1.098-1.271 1.183-1.124 1.267-0.982 1.349-0.845 1.428-0.714 1.504-0.59 1.577-0.473 1.65-0.365 1.719-0.263 1.79-0.171 1.859-0.086 1.929-9e-3 2 0.061 2.072 0.125 2.144 0.18 2.217 0.23 2.29 0.273 2.365 0.308 2.439 0.338 2.514 0.36 2.589 0.377 2.665 0.385 2.742 0.389 2.817 0.395 2.965z"/>
   <path d="m39.185 210.35c34.84 126.02 74.65 262.48 109.49 388.5 2.2211 8.03 22.903 11.44 46.411 5.1401 223.15-36.06 435.91-83.92 659.06-119.98 12.87-3.92 28.22-24.83 24.45-66.617l-184.11-359.68-636.65 98.286c-28.488 5.099-22.725 23.003-18.647 54.359z"/>
   <g fill="#fff">
    <path d="m45.643 202.11l99.784 337.74c2.096 7.1001 20.34 10.17 41.218 4.5701 198.17-32.03 467.31-81.88 665.49-113.9 14.61-1.7329 26.11-9.2299 19.64-29.029l-177.02-343.79-635.22 97.325c-25.299 4.528-23.45 20.726-13.885 47.086z"/>
    <path d="m699.4 232.6l51.09-7.454 74.98 144.7-52.66 10.717-73.41-147.96z"/>
   </g>
   <path d="m749.95 265.81l2.85-0.136 37.41 73.598-2.9801 0.677-37.28-74.139z"/>
   <path d="m643.01 121.28c17.99 1.966 31.16 10.788 29.42 19.699s-17.73 14.543-35.72 12.577c-17.98-1.966-31.16-10.788-29.42-19.699 1.74-8.912 17.74-14.544 35.72-12.577z"/>
   <path d="m644.58 102.89c49.49 7.514 85.75 41.226 80.96 75.281s-48.8 55.578-98.29 48.063c-49.495-7.515-85.749-41.226-80.963-75.281s48.803-55.578 98.293-48.063z"/>
   <g fill="#fff">
    <path d="m644.15 100.09c49.27 7.198 85.37 39.489 80.6 72.109-4.76 32.62-48.59 53.236-97.86 46.038-49.275-7.198-85.37-39.489-80.605-72.109s48.585-53.236 97.865-46.038z"/>
    <path d="m661.21 151.15c-6.66 2.85-16.02 4.1-26 3.009-17.99-1.966-31.16-10.788-29.42-19.699 0.83997-4.324 5.0399-7.877 11.2-10.163-5.33 2.286-8.92 5.599-9.7 9.56-1.7301 8.913 11.44 17.735 29.42 19.701 9.25 1.011 17.97 0.012024 24.5-2.408z"/>
   </g>
   <path d="m642.32 111.72c38.34 5.523 66.42 30.297 62.71 55.324-2.01 13.582-12.97 24.452-28.71 30.67-10.08 3.986-22.13 6.061-35.03 5.713-4.0601-0.10901-8.2001-0.45801-12.39-1.062-38.339-5.522-66.421-30.297-62.713-55.323 3.707-25.027 37.803-40.844 76.133-35.322z"/>
   <path d="m642.83 109.43c36.39 4.867 63.05 26.7 59.53 48.757-3.51 22.056-35.88 35.995-72.28 31.128-36.389-4.867-63.049-26.7-59.529-48.756 3.5189-22.057 35.889-35.996 72.279-31.129z" fill="#fff"/>
   <path d="m642.02 121.07c20.25 2.94 35.08 16.128 33.12 29.45-1.96 13.323-19.96 21.743-40.21 18.803s-35.09-16.128-33.13-29.45c1.96-13.323 19.97-21.743 40.22-18.803z"/>
  </g>
  <path d="m688.67 92.788c-5.3201 12.289-19.76 17.706-32.26 12.099-12.49-5.606-20.19-21.117-12.99-32.41l14.41-22.639c6.4099-10.049 17.87-12.772 28.98-7.784 11.12 4.989 16.3 17.906 11.56 28.838-3.48 8.039-6.15 13.708-9.7 21.896z" stroke="#fff"/>
  <g stroke="#000">
   <g fill="#fff">
    <path d="m672.1 67.552c10.92 4.391 16 15.757 11.35 25.381-4.65 9.623-17.27 13.867-28.18 9.476-10.92-4.391-16-15.757-11.35-25.381 4.64-9.624 17.26-13.868 28.18-9.476z"/>
    <path d="m641.51 121.88c17.98 1.967 31.15 10.788 29.41 19.699-1.73 8.911-17.73 14.543-35.71 12.577-17.99-1.966-31.16-10.788-29.42-19.699s17.73-14.543 35.72-12.577z"/>
    <path d="m651.63 87.106c4.25-18.145 28.19-6.874 19.23 7.401-5.59-4.252-12.2-6.354-19.23-7.401z"/>
    <path d="m370.77 116.65c150.24 0 272.08 84.949 272.08 189.7s-121.84 189.7-272.08 189.7-272.08-84.945-272.08-189.7c0-104.75 121.84-189.7 272.08-189.7z"/>
   </g>
   <path d="m372.93 116.65c149.04 0 269.91 83.488 269.91 186.44s-120.87 186.44-269.91 186.44-269.91-83.488-269.91-186.44 120.87-186.44 269.91-186.44z"/>
   <path d="m371.08 120.99c135.62 0 245.6 75.49 245.6 168.58 0 93.086-109.98 168.58-245.6 168.58s-245.61-75.491-245.61-168.58c0-93.087 109.98-168.58 245.61-168.58z"/>
   <path d="m522.6 156.73c59.638 30.759 98.223 79.716 98.223 134.85 0 93.086-109.98 168.57-245.61 168.57-57.018 0-109.5-13.345-151.19-35.729 40.979 21.036 91.844 33.495 146.94 33.495 135.62 0 245.6-75.49 245.6-168.58 0-53.813-36.756-101.74-93.973-132.61z" fill="#fff"/>
   <path d="m677.54 132.46c0 11.126-13.8 20.149-30.82 20.149s-36.98-11.555-35.46-22.576l3.34-24.158c1.53-11.021 15.61-18.794 32.63-18.794 17.01 0 30.82 9.023 30.82 20.149 0 10.882-0.51001 14.042-0.51001 25.23z"/>
   <g fill="#fff">
    <path d="m677.93 106.71c0.039917 0.42804 0.069946 0.85901 0.069946 1.294 0 11.59-14.15 20.989-31.59 20.989s-31.59-9.399-31.59-20.989c0-0.435 0.02002-0.86597 0.060059-1.294 1.01 10.987 14.74 19.695 31.53 19.695s30.52-8.708 31.52-19.695z"/>
    <path d="m626.42 137.49c8.4399-4.448 16.23 3.96 12.47 11.662 0.23999-0.75 0.39002-1.543 0.43005-2.365 0.2699-5.233-3.7301-9.693-8.92-9.961-1.41-0.072998-2.75 0.16998-3.98 0.664z"/>
   </g>
   <path d="m515.6 93.196c17.161 1.844 30.158 11.901 29.024 22.458-1.135 10.557-15.972 17.623-33.132 15.779-17.161-1.843-30.158-11.9-29.024-22.458 1.135-10.557 15.971-17.623 33.132-15.779z" fill="none"/>
   <path d="m370.06 117.28c134.35 0 243.3 75.49 243.3 168.58 0 93.087-108.95 168.58-243.3 168.58s-243.31-75.49-243.31-168.58c0-93.087 108.96-168.58 243.31-168.58z" fill="#fff"/>
  </g>
  <path d="m372.74 219.52c43.292 0 78.4 24.824 78.4 55.434 0 30.611-35.108 55.435-78.4 55.435s-78.4-24.824-78.4-55.435c0-30.61 35.108-55.434 78.4-55.434z" stroke="#ff0"/>
  <path d="m372.74 263.21c9.1699 0 16.607 5.259 16.607 11.742 0 6.484-7.437 11.742-16.607 11.742s-16.607-5.258-16.607-11.742c0-6.483 7.437-11.742 16.607-11.742z" fill="#fff" stroke="#fff"/>
 </g>
 <g stroke="#000">
  <path d="m366.21 274.84c0.49402-5.988-0.73401-15.119 4.913-18.273 1.331-0.90497 2.7211-0.43201 3.65 0.23401 3.654 2.622 4.787 10.135 3.85 18.71-4.4669 3.456-8.6169 3.296-12.413-0.67102z" fill="#fff" stroke-width="2"/>
  <g stroke-width=".216">
   <path d="m515.6 93.196c17.161 1.844 30.158 11.901 29.024 22.458-1.135 10.557-15.972 17.623-33.132 15.779-17.161-1.843-30.158-11.9-29.024-22.458 1.135-10.557 15.971-17.623 33.132-15.779z" fill="none"/>
   <path d="m699.4 232.6l51.09-7.454 74.98 144.7-4.1 0.834-73.07-141.04-46.97 6.851-1.9301-3.896z"/>
  </g>
  <path d="m749.91 291.86l10.62 20.782 26.57-3.848 0.4701-3.007-2.6901-5.934 0.79-12.266-3.16-5.539-25.95 2.851-0.7201 4.73-4.8099 0.296-0.2 0.012-0.3 0.019-0.62 0.038v1.866z" fill="#fff"/>
  <g stroke-width=".216">
   <path d="m515.6 93.196c17.161 1.844 30.158 11.901 29.024 22.458-0.24902 2.315-1.157 4.462-2.604 6.384 0.39807-3.934-2.469-7.075-2.469-7.075l-51.905 6.3441c-3.683-3.658-5.648-7.951-5.178-12.332 1.135-10.557 15.971-17.623 33.132-15.779z" fill="#fff"/>
   <path d="m487.56 121.28c14.675-2.032 31.118-3.59 45.793-5.622-13.348-7.424-30.496-9.364-48.811 1.729 0.66894 1.253 1.765 2.539 3.0179 3.893z"/>
   <path d="m624.91 141.44c6.92-1.302 12.83 0.107 11.99 9.488-9.6899 10.542-14.36 23.521-14.63 35.184 0.58997 22.816 2.92 56.953-4.47 68.448-10.23 21.975-33.532 29.919-48.385 42.966 0.78992 3.361-0.45105 6.741-1.467 7.996-5.105 3.885-8.744 7.094-13.849 10.979 0.045044 1.085 0.089966 2.169 0.13501 3.253-5.1951 3.795-10.391 7.59-15.587 11.385 5.499 2.894 9.3511 6.022 12.741 9.217 0.6311 1.37 0.36011 2.137-0.81299 2.304-4.079-4.495-9.569-8.425-18.163-11.114l-21.144 15.18c-0.13501 3.163-0.271 6.326-0.40601 9.488l-12.741 7.455c-0.40698-0.045044-0.81299-0.091003-1.22-0.13605-2.846 1.807-5.693 3.615-8.5391 5.422-0.85791-0.31598-1.7169-1.049-2.575-1.365 0.43896-6.601-4.142-11.993-5.39-4.112-1.129-0.67798-2.259-1.356-3.3879-2.034 0.22595-4.111 0.69092-9.115 0.91699-13.227 1.445-1.581 3.723-2.538 5.169-4.119l-9.223-7.944-0.0129-2.575c7.5909-5.828 15.181-11.656 22.771-17.484 2.621 1.337 5.241 1.687 7.861-0.13599 10.572-6.732 21.144-13.464 31.716-20.195 1.537 0.81299 3.073 1.626 4.609 2.439 5.015-3.704 10.03-7.409 15.045-11.114 1.852-0.91901 3.7051-0.55798 5.557 1.084 12.695-9.397 25.391-18.794 38.082-28.192 6.5-4.303 11.41-14.67 9.76-50.014 0.38-16.576-0.82996-32.935 5.7-50.014 2.89-5.692 7.05-12.82 9.9501-18.513z"/>
   <path d="m723.66 262.15c1.2 0 2.17 0.72803 2.17 1.626 0 0.89899-0.97009 1.627-2.17 1.627-1.2 0-2.17-0.72797-2.17-1.627 0-0.89801 0.97009-1.626 2.17-1.626z"/>
   <g fill="#fff">
    <path d="m541.93 297.8c1.2909-0.19702 2.528-0.65698 3.82 0.005981 5.062-3.441 9.7369-6.883 14.799-10.324-2.163-0.46002-3.257-0.453-5.7639 0.97998-4.055 2.924-8.801 6.414-12.855 9.338z"/>
    <path d="m554.36 315.29c0.59192-1.164 0.45898-3.396 0.23694-4.83 4.858-3.723 9.595-7.079 14.454-10.801-0.2439 2.198-0.83093 4.348-2.979 6.277-4.0509 2.929-7.662 6.425-11.712 9.354z"/>
    <path d="m622.17 216.48c1.71 34.19-9.37 49.636-24.99 59.243 24.9-12.561 26.66-34.083 24.99-59.243z"/>
    <path d="m634.19 143.36c-17 25.146-15.11 47.402-14.94 64.483 0.18005 17.08 1 29.658-1.22 35.891-8.04 22.564-28.969 35.309-49.588 49.035-0.10498 0.070007-0.19898 0.25903-0.31506 0.21002-0.52002-0.21802-0.81592-0.15399-0.98999 0.059998-0.146 0.17798-0.20801 0.45898-0.24792 0.76697-0.018066 0.13605-0.229 0.15302-0.34302 0.229-4.756 3.187-9.475 6.445-13.993 9.905-1.6279-2.01-3.471-3.913-5.787-5.58 4.753-3.306 9.507-6.613 14.26-9.92 0.06604-0.036987 0.12903-0.085022 0.19202-0.13599 0.27197-0.22101 0.52893-0.51605 0.85095-0.47003 1.154 0.164 1.6061-0.10199 1.358-0.79797-0.031982-0.08905 0.16199-0.096008 0.24304-0.14404 28.203-16.715 46.44-34.099 45.87-63.991-0.65002-34.224-6.52-49.133 14.73-80.988 4.74-1.494 8.05-1.012 9.92 1.447z"/>
    <path d="m94.826 172.56c10.59 0 19.179 5.979 19.179 13.351s-8.589 13.351-19.179 13.351-19.179-5.9789-19.179-13.351c0-7.372 8.589-13.351 19.179-13.351z"/>
   </g>
   <path d="m94.876 181.92c9.121 0 16.517 3.88 16.517 8.664 0 4.785-7.396 8.665-16.517 8.665s-16.518-3.88-16.518-8.665c0-4.784 7.397-8.664 16.518-8.664z"/>
   <path d="m94.559 182.75c5.743 0 10.4 2.443 10.4 5.455v5.418c0 3.014-4.657 5.456-10.4 5.456-5.744 0-10.4-2.442-10.4-5.456v-5.418c0-3.012 4.656-5.455 10.4-5.455z" fill="#fff"/>
  </g>
 </g>
 <g stroke-width=".216">
  <path d="m189.63 433.35c13.23 0 23.96 7.355 23.96 16.424 0 10.108 1.354 12.248 1.354 21.508 0 9.0698-11.032 16.42-24.637 16.42-13.604 0-24.636-7.3501-24.636-16.42v-21.508c0-9.0691 10.729-16.424 23.959-16.424z" stroke="#fff"/>
  <g stroke="#000">
   <path d="m189.81 433.42c13.081 0 23.69 7.113 23.69 15.885s-10.609 15.884-23.69 15.884-23.689-7.1121-23.689-15.884c0-8.772 10.608-15.885 23.689-15.885z" fill="none"/>
   <g fill="#fff">
    <path d="m213.5 449.69c0.005005 0.13501 0.007935 0.27002 0.007935 0.40601 0 9.212-10.609 16.682-23.69 16.682s-23.689-7.4701-23.689-16.682c0-0.13599 0.00293-0.271 0.006958-0.40601 0.30603 8.594 10.876 14.768 23.764 14.768s23.294-6.1741 23.6-14.768z"/>
    <path d="m474.04 333.73l24.788 17.533 22.067-17.13 0.907-5.542 30.851-21.348-16.589-11.447c-10.606 6.759-21.213 13.517-31.819 20.276-2.2321 1.328-4.795 1.31-7.509 0.21899l-22.696 17.439z"/>
   </g>
   <path d="m759.31 303.19l25.44-3.345 0.87-12.127-24.74 3.477-4.12-6.155 3.3 6.269-0.75 11.881z"/>
  </g>
  <path d="m104.4 187.28c0.036987 0.13904 0.057007 0.28003 0.057007 0.42304 0 2.164-4.4291 3.92-9.891 3.92-5.461 0-9.89-1.756-9.89-3.92 0-0.143 0.019958-0.284 0.057007-0.42304 0.53198 1.967 4.7319 3.498 9.833 3.498 5.102 0 9.302-1.531 9.834-3.498z" fill="#fff" stroke="#fff"/>
 </g>
 <g stroke="#000">
  <g stroke-width=".216">
   <path d="m760.81 308.45l0.0599 4.201 26.38-3.727-0.0499-3.835-25.59 3.259-2.27-5.32 1.4701 5.422z"/>
   <path d="m666.41 78.93c-0.72998-0.987-2.33-1.155-3.37-1.036-1.59 3.255-3.27 6.849-4.86 10.103-0.28003 1.335 1.6 0.99506 2.64 1.3 1.6-3.254 3.99-7.113 5.59-10.367z"/>
   <path d="m160.02 509.61l-0.092-4.02 65.31-6.76 7.781 21.87-0.1 4.01-65.488 11.04-7.411-26.14z"/>
   <path d="m514.34 317.92c2.792 0 5.056 1.537 5.056 3.431 0 1.895-2.264 3.431-5.056 3.431s-5.057-1.536-5.057-3.431c0-1.894 2.265-3.431 5.057-3.431z"/>
   <path d="m536.02 303.48c3.49 0 6.321 1.663 6.321 3.714s-2.831 3.714-6.321 3.714-6.3209-1.663-6.3209-3.714 2.8309-3.714 6.3209-3.714z"/>
   <g fill="#fff">
    <path d="m535.2 304.56c2.6429 0 4.7859 1.454 4.7859 3.247s-2.1429 3.248-4.7859 3.248c-2.6421 0-4.785-1.455-4.785-3.248s2.1429-3.247 4.785-3.247z"/>
    <path d="m478.02 348.31l10.507 8.92-0.1599 11.458 1.9249-11.115 6.666-4.107-7.2269 2.108-11.711-7.264z"/>
   </g>
  </g>
  <path d="m160.02 505.55l65.218-10.78 7.681 25.87-65.488 11.05-7.411-26.14z" fill="#fff"/>
  <path d="m245.93 510.84l-0.031-1.3899 22.561-2.3401 2.688 7.5601-0.0339 1.3801-22.624 3.8198-2.5601-9.03z" stroke-width=".216"/>
  <path d="m245.93 509.43l22.53-3.72 2.6541 8.9399-22.624 3.8101-2.5601-9.03z" fill="#fff"/>
  <path d="m281.82 504.86l-0.0321-1.3899 22.562-2.3401 2.688 7.55-0.0349 1.3899-22.623 3.8201-2.5599-9.03z" stroke-width=".216"/>
  <path d="m281.82 503.45l22.53-3.72 2.6531 8.9399-22.623 3.8101-2.5599-9.03z" fill="#fff"/>
  <g stroke-width=".216">
   <path d="m628.42 138.78c-20.91 27.099-16.27 50.224-17.66 67.025-3.3101-23.815 1.9299-47.318 17.66-67.025z"/>
   <path d="m193.51 567.34c25.508 0 46.194 15.86 46.194 35.41s-20.686 35.41-46.194 35.41-46.194-15.86-46.194-35.41 20.686-35.41 46.194-35.41z"/>
   <path d="m804.82 453.93c25.51 0 46.19 15.856 46.19 35.406s-20.68 35.41-46.19 35.41-46.2-15.86-46.2-35.41 20.69-35.406 46.2-35.406z"/>
   <path d="m369.05 276.18s-1.005-16.496 3.1549-19.221c4.16-2.726-3.5859 11.475-1.0039 19.938-0.78406 3.261-3.274-2.451-2.151-0.71698z"/>
   <path d="m756.02 289.44l-1.02 5.389-4.73-4.871 5.75-0.518z"/>
  </g>
 </g>
</svg>
