<svg width="688" height="280" viewBox="0 0 688 280" fill="none" xmlns="http://www.w3.org/2000/svg">
<rect x="0.5" y="0.5" width="351" height="279" rx="4.5" stroke="#9747FF" stroke-dasharray="10 5"/>
<rect width="320" height="72" transform="translate(16 16)" fill="#F0F0F0"/>
<path d="M42.496 45.032V65H39.808V45.032H32.704V42.664H49.6V45.032H42.496ZM53.0325 41.32H55.5925V51.176H55.7205C56.1258 50.2373 56.6912 49.4907 57.4165 48.936C58.1632 48.3813 59.1552 48.104 60.3925 48.104C62.0992 48.104 63.4432 48.6587 64.4245 49.768C65.4272 50.856 65.9285 52.4027 65.9285 54.408V65H63.3685V54.856C63.3685 51.8907 62.1205 50.408 59.6245 50.408C59.1125 50.408 58.6112 50.472 58.1205 50.6C57.6512 50.728 57.2245 50.92 56.8405 51.176C56.4565 51.432 56.1472 51.7627 55.9125 52.168C55.6992 52.552 55.5925 53.0107 55.5925 53.544V65H53.0325V41.32ZM72.5 44.616C71.9453 44.616 71.54 44.488 71.284 44.232C71.0493 43.9547 70.932 43.6027 70.932 43.176V42.76C70.932 42.3333 71.0493 41.992 71.284 41.736C71.54 41.4587 71.9453 41.32 72.5 41.32C73.0547 41.32 73.4493 41.4587 73.684 41.736C73.94 41.992 74.068 42.3333 74.068 42.76V43.176C74.068 43.6027 73.94 43.9547 73.684 44.232C73.4493 44.488 73.0547 44.616 72.5 44.616ZM71.22 48.488H73.78V65H71.22V48.488ZM84.18 65.384C82.644 65.384 81.3533 65.096 80.308 64.52C79.284 63.9227 78.3987 63.1333 77.652 62.152L79.476 60.68C80.116 61.4907 80.8307 62.12 81.62 62.568C82.4093 62.9947 83.3267 63.208 84.372 63.208C85.46 63.208 86.3027 62.9733 86.9 62.504C87.5187 62.0347 87.828 61.3733 87.828 60.52C87.828 59.88 87.6147 59.336 87.188 58.888C86.7827 58.4187 86.036 58.0987 84.948 57.928L83.636 57.736C82.868 57.6293 82.164 57.4693 81.524 57.256C80.884 57.0213 80.3187 56.7227 79.828 56.36C79.3587 55.976 78.9853 55.5067 78.708 54.952C78.452 54.3973 78.324 53.736 78.324 52.968C78.324 52.1573 78.4733 51.4533 78.772 50.856C79.0707 50.2373 79.476 49.7253 79.988 49.32C80.5213 48.9147 81.1507 48.616 81.876 48.424C82.6013 48.2107 83.38 48.104 84.212 48.104C85.556 48.104 86.676 48.3387 87.572 48.808C88.4893 49.2773 89.2893 49.928 89.972 50.76L88.276 52.296C87.9133 51.784 87.38 51.3253 86.676 50.92C85.972 50.4933 85.0867 50.28 84.02 50.28C82.9533 50.28 82.1427 50.5147 81.588 50.984C81.0547 51.432 80.788 52.0507 80.788 52.84C80.788 53.6507 81.0547 54.2373 81.588 54.6C82.1427 54.9627 82.932 55.2293 83.956 55.4L85.236 55.592C87.0707 55.8693 88.372 56.4027 89.14 57.192C89.908 57.96 90.292 58.9733 90.292 60.232C90.292 61.832 89.748 63.0907 88.66 64.008C87.572 64.9253 86.0787 65.384 84.18 65.384ZM116.616 54.888H105.32V65H102.632V42.664H105.32V52.52H116.616V42.664H119.304V65H116.616V54.888ZM131.209 65.384C130.079 65.384 129.055 65.1813 128.137 64.776C127.241 64.3707 126.463 63.7947 125.801 63.048C125.161 62.28 124.66 61.3733 124.297 60.328C123.956 59.2613 123.785 58.0667 123.785 56.744C123.785 55.4427 123.956 54.2587 124.297 53.192C124.66 52.1253 125.161 51.2187 125.801 50.472C126.463 49.704 127.241 49.1173 128.137 48.712C129.055 48.3067 130.079 48.104 131.209 48.104C132.319 48.104 133.311 48.3067 134.185 48.712C135.06 49.1173 135.807 49.6827 136.425 50.408C137.044 51.112 137.513 51.9547 137.833 52.936C138.175 53.9173 138.345 54.9947 138.345 56.168V57.384H126.473V58.152C126.473 58.856 126.58 59.5173 126.793 60.136C127.028 60.7333 127.348 61.256 127.753 61.704C128.18 62.152 128.692 62.504 129.289 62.76C129.908 63.016 130.601 63.144 131.369 63.144C132.415 63.144 133.321 62.8987 134.089 62.408C134.879 61.9173 135.487 61.2133 135.913 60.296L137.737 61.608C137.204 62.7387 136.372 63.656 135.241 64.36C134.111 65.0427 132.767 65.384 131.209 65.384ZM131.209 50.248C130.505 50.248 129.865 50.376 129.289 50.632C128.713 50.8667 128.212 51.208 127.785 51.656C127.38 52.104 127.06 52.6373 126.825 53.256C126.591 53.8533 126.473 54.5147 126.473 55.24V55.464H135.593V55.112C135.593 53.64 135.188 52.4667 134.377 51.592C133.588 50.696 132.532 50.248 131.209 50.248ZM154.564 65C153.604 65 152.91 64.744 152.484 64.232C152.078 63.72 151.822 63.08 151.716 62.312H151.556C151.193 63.336 150.596 64.104 149.764 64.616C148.932 65.128 147.94 65.384 146.788 65.384C145.038 65.384 143.673 64.936 142.692 64.04C141.732 63.144 141.252 61.928 141.252 60.392C141.252 58.8347 141.817 57.64 142.948 56.808C144.1 55.976 145.881 55.56 148.292 55.56H151.556V53.928C151.556 52.7547 151.236 51.8587 150.596 51.24C149.956 50.6213 148.974 50.312 147.652 50.312C146.649 50.312 145.806 50.536 145.124 50.984C144.462 51.432 143.908 52.0293 143.46 52.776L141.924 51.336C142.372 50.44 143.086 49.6827 144.068 49.064C145.049 48.424 146.286 48.104 147.78 48.104C149.785 48.104 151.342 48.5947 152.452 49.576C153.561 50.5573 154.116 51.9227 154.116 53.672V62.76H156.004V65H154.564ZM147.204 63.208C147.844 63.208 148.43 63.1333 148.964 62.984C149.497 62.8347 149.956 62.6213 150.34 62.344C150.724 62.0667 151.022 61.7467 151.236 61.384C151.449 61.0213 151.556 60.6267 151.556 60.2V57.48H148.164C146.692 57.48 145.614 57.6933 144.932 58.12C144.27 58.5467 143.94 59.1653 143.94 59.976V60.648C143.94 61.4587 144.228 62.088 144.804 62.536C145.401 62.984 146.201 63.208 147.204 63.208ZM170.218 62.312H170.09C169.087 64.36 167.476 65.384 165.258 65.384C164.234 65.384 163.306 65.1813 162.474 64.776C161.642 64.3707 160.927 63.7947 160.33 63.048C159.754 62.3013 159.306 61.3947 158.986 60.328C158.687 59.2613 158.538 58.0667 158.538 56.744C158.538 55.4213 158.687 54.2267 158.986 53.16C159.306 52.0933 159.754 51.1867 160.33 50.44C160.927 49.6933 161.642 49.1173 162.474 48.712C163.306 48.3067 164.234 48.104 165.258 48.104C166.41 48.104 167.391 48.36 168.202 48.872C169.034 49.3627 169.663 50.1307 170.09 51.176H170.218V41.32H172.778V65H170.218V62.312ZM165.962 63.08C166.538 63.08 167.082 63.0053 167.594 62.856C168.127 62.7067 168.586 62.4933 168.97 62.216C169.354 61.9173 169.652 61.5653 169.866 61.16C170.1 60.7333 170.218 60.2533 170.218 59.72V53.576C170.218 53.128 170.1 52.712 169.866 52.328C169.652 51.9227 169.354 51.5813 168.97 51.304C168.586 51.0267 168.127 50.8133 167.594 50.664C167.082 50.4933 166.538 50.408 165.962 50.408C164.511 50.408 163.37 50.8667 162.538 51.784C161.706 52.68 161.29 53.864 161.29 55.336V58.152C161.29 59.624 161.706 60.8187 162.538 61.736C163.37 62.632 164.511 63.08 165.962 63.08ZM179.5 44.616C178.945 44.616 178.54 44.488 178.284 44.232C178.049 43.9547 177.932 43.6027 177.932 43.176V42.76C177.932 42.3333 178.049 41.992 178.284 41.736C178.54 41.4587 178.945 41.32 179.5 41.32C180.055 41.32 180.449 41.4587 180.684 41.736C180.94 41.992 181.068 42.3333 181.068 42.76V43.176C181.068 43.6027 180.94 43.9547 180.684 44.232C180.449 44.488 180.055 44.616 179.5 44.616ZM178.22 48.488H180.78V65H178.22V48.488ZM186.22 65V48.488H188.78V51.176H188.908C189.313 50.2373 189.879 49.4907 190.604 48.936C191.351 48.3813 192.343 48.104 193.58 48.104C195.287 48.104 196.631 48.6587 197.612 49.768C198.615 50.856 199.116 52.4027 199.116 54.408V65H196.556V54.856C196.556 51.8907 195.308 50.408 192.812 50.408C192.3 50.408 191.799 50.472 191.308 50.6C190.839 50.728 190.412 50.92 190.028 51.176C189.644 51.432 189.335 51.7627 189.1 52.168C188.887 52.552 188.78 53.0107 188.78 53.544V65H186.22ZM218.328 66.824C218.328 68.5307 217.656 69.7787 216.312 70.568C214.989 71.3787 212.994 71.784 210.328 71.784C207.746 71.784 205.89 71.432 204.76 70.728C203.629 70.024 203.064 69.0213 203.064 67.72C203.064 66.824 203.298 66.12 203.768 65.608C204.237 65.1173 204.877 64.7547 205.688 64.52V64.168C204.706 63.6987 204.216 62.9307 204.216 61.864C204.216 61.032 204.482 60.4027 205.016 59.976C205.549 59.528 206.232 59.1973 207.064 58.984V58.856C206.082 58.3867 205.314 57.7147 204.76 56.84C204.226 55.9653 203.96 54.952 203.96 53.8C203.96 52.968 204.109 52.2 204.408 51.496C204.706 50.792 205.122 50.1947 205.656 49.704C206.21 49.192 206.861 48.7973 207.608 48.52C208.376 48.2427 209.229 48.104 210.168 48.104C211.341 48.104 212.386 48.3173 213.304 48.744V48.456C213.304 47.816 213.453 47.2933 213.752 46.888C214.05 46.4613 214.541 46.248 215.224 46.248H217.688V48.488H214.552V49.544C215.149 50.056 215.608 50.6747 215.928 51.4C216.269 52.104 216.44 52.904 216.44 53.8C216.44 54.632 216.29 55.4 215.992 56.104C215.693 56.808 215.266 57.416 214.712 57.928C214.178 58.4187 213.528 58.8027 212.76 59.08C211.992 59.3573 211.138 59.496 210.2 59.496C209.666 59.496 209.133 59.4427 208.6 59.336C208.045 59.4853 207.544 59.7093 207.096 60.008C206.648 60.2853 206.424 60.68 206.424 61.192C206.424 61.6827 206.658 62.0133 207.128 62.184C207.597 62.3547 208.205 62.44 208.952 62.44H212.472C214.52 62.44 216.002 62.8347 216.92 63.624C217.858 64.392 218.328 65.4587 218.328 66.824ZM215.928 67.016C215.928 66.3547 215.672 65.8213 215.16 65.416C214.669 65.032 213.784 64.84 212.504 64.84H207C205.976 65.3093 205.464 66.056 205.464 67.08C205.464 67.8053 205.73 68.424 206.264 68.936C206.818 69.448 207.746 69.704 209.048 69.704H211.416C212.845 69.704 213.954 69.48 214.744 69.032C215.533 68.584 215.928 67.912 215.928 67.016ZM210.2 57.448C211.288 57.448 212.152 57.192 212.792 56.68C213.432 56.1467 213.752 55.336 213.752 54.248V53.352C213.752 52.264 213.432 51.464 212.792 50.952C212.152 50.4187 211.288 50.152 210.2 50.152C209.112 50.152 208.248 50.4187 207.608 50.952C206.968 51.464 206.648 52.264 206.648 53.352V54.248C206.648 55.336 206.968 56.1467 207.608 56.68C208.248 57.192 209.112 57.448 210.2 57.448ZM228.972 65V62.632H235.212V44.648H234.988L229.356 49.896L227.788 48.2L233.708 42.664H237.9V62.632H243.66V65H228.972ZM249.696 65.384C249.013 65.384 248.512 65.2133 248.192 64.872C247.893 64.5307 247.744 64.0827 247.744 63.528V63.112C247.744 62.5573 247.893 62.1093 248.192 61.768C248.512 61.4267 249.013 61.256 249.696 61.256C250.378 61.256 250.869 61.4267 251.168 61.768C251.488 62.1093 251.648 62.5573 251.648 63.112V63.528C251.648 64.0827 251.488 64.5307 251.168 64.872C250.869 65.2133 250.378 65.384 249.696 65.384Z" fill="black"/>
<rect width="320" height="72" transform="translate(16 104)" fill="#F0F0F0"/>
<path d="M39.872 130.024V145H37.856V130.024H32.528V128.248H45.2V130.024H39.872ZM47.7744 127.24H49.6944V134.632H49.7904C50.0944 133.928 50.5184 133.368 51.0624 132.952C51.6224 132.536 52.3664 132.328 53.2944 132.328C54.5744 132.328 55.5824 132.744 56.3184 133.576C57.0704 134.392 57.4464 135.552 57.4464 137.056V145H55.5264V137.392C55.5264 135.168 54.5904 134.056 52.7184 134.056C52.3344 134.056 51.9584 134.104 51.5904 134.2C51.2384 134.296 50.9184 134.44 50.6304 134.632C50.3424 134.824 50.1104 135.072 49.9344 135.376C49.7744 135.664 49.6944 136.008 49.6944 136.408V145H47.7744V127.24ZM62.375 129.712C61.959 129.712 61.655 129.616 61.463 129.424C61.287 129.216 61.199 128.952 61.199 128.632V128.32C61.199 128 61.287 127.744 61.463 127.552C61.655 127.344 61.959 127.24 62.375 127.24C62.791 127.24 63.087 127.344 63.263 127.552C63.455 127.744 63.551 128 63.551 128.32V128.632C63.551 128.952 63.455 129.216 63.263 129.424C63.087 129.616 62.791 129.712 62.375 129.712ZM61.415 132.616H63.335V145H61.415V132.616ZM71.135 145.288C69.983 145.288 69.015 145.072 68.231 144.64C67.463 144.192 66.799 143.6 66.239 142.864L67.607 141.76C68.087 142.368 68.623 142.84 69.215 143.176C69.807 143.496 70.495 143.656 71.279 143.656C72.095 143.656 72.727 143.48 73.175 143.128C73.639 142.776 73.871 142.28 73.871 141.64C73.871 141.16 73.711 140.752 73.391 140.416C73.087 140.064 72.527 139.824 71.711 139.696L70.727 139.552C70.151 139.472 69.623 139.352 69.143 139.192C68.663 139.016 68.239 138.792 67.871 138.52C67.519 138.232 67.239 137.88 67.031 137.464C66.839 137.048 66.743 136.552 66.743 135.976C66.743 135.368 66.855 134.84 67.079 134.392C67.303 133.928 67.607 133.544 67.991 133.24C68.391 132.936 68.863 132.712 69.407 132.568C69.951 132.408 70.535 132.328 71.159 132.328C72.167 132.328 73.007 132.504 73.679 132.856C74.367 133.208 74.967 133.696 75.479 134.32L74.207 135.472C73.935 135.088 73.535 134.744 73.007 134.44C72.479 134.12 71.815 133.96 71.015 133.96C70.215 133.96 69.607 134.136 69.191 134.488C68.791 134.824 68.591 135.288 68.591 135.88C68.591 136.488 68.791 136.928 69.191 137.2C69.607 137.472 70.199 137.672 70.967 137.8L71.927 137.944C73.303 138.152 74.279 138.552 74.855 139.144C75.431 139.72 75.719 140.48 75.719 141.424C75.719 142.624 75.311 143.568 74.495 144.256C73.679 144.944 72.559 145.288 71.135 145.288ZM95.4622 137.416H86.9902V145H84.9742V128.248H86.9902V135.64H95.4622V128.248H97.4782V145H95.4622V137.416ZM106.407 145.288C105.559 145.288 104.791 145.136 104.103 144.832C103.431 144.528 102.847 144.096 102.351 143.536C101.871 142.96 101.495 142.28 101.223 141.496C100.967 140.696 100.839 139.8 100.839 138.808C100.839 137.832 100.967 136.944 101.223 136.144C101.495 135.344 101.871 134.664 102.351 134.104C102.847 133.528 103.431 133.088 104.103 132.784C104.791 132.48 105.559 132.328 106.407 132.328C107.239 132.328 107.983 132.48 108.639 132.784C109.295 133.088 109.855 133.512 110.319 134.056C110.783 134.584 111.135 135.216 111.375 135.952C111.631 136.688 111.759 137.496 111.759 138.376V139.288H102.855V139.864C102.855 140.392 102.935 140.888 103.095 141.352C103.271 141.8 103.511 142.192 103.815 142.528C104.135 142.864 104.519 143.128 104.967 143.32C105.431 143.512 105.951 143.608 106.527 143.608C107.311 143.608 107.991 143.424 108.567 143.056C109.159 142.688 109.615 142.16 109.935 141.472L111.303 142.456C110.903 143.304 110.279 143.992 109.431 144.52C108.583 145.032 107.575 145.288 106.407 145.288ZM106.407 133.936C105.879 133.936 105.399 134.032 104.967 134.224C104.535 134.4 104.159 134.656 103.839 134.992C103.535 135.328 103.295 135.728 103.119 136.192C102.943 136.64 102.855 137.136 102.855 137.68V137.848H109.695V137.584C109.695 136.48 109.391 135.6 108.783 134.944C108.191 134.272 107.399 133.936 106.407 133.936ZM123.923 145C123.203 145 122.683 144.808 122.363 144.424C122.059 144.04 121.867 143.56 121.787 142.984H121.667C121.395 143.752 120.947 144.328 120.323 144.712C119.699 145.096 118.955 145.288 118.091 145.288C116.779 145.288 115.755 144.952 115.019 144.28C114.299 143.608 113.939 142.696 113.939 141.544C113.939 140.376 114.363 139.48 115.211 138.856C116.075 138.232 117.411 137.92 119.219 137.92H121.667V136.696C121.667 135.816 121.427 135.144 120.947 134.68C120.467 134.216 119.731 133.984 118.739 133.984C117.987 133.984 117.355 134.152 116.843 134.488C116.347 134.824 115.931 135.272 115.595 135.832L114.443 134.752C114.779 134.08 115.315 133.512 116.051 133.048C116.787 132.568 117.715 132.328 118.835 132.328C120.339 132.328 121.507 132.696 122.339 133.432C123.171 134.168 123.587 135.192 123.587 136.504V143.32H125.003V145H123.923ZM118.403 143.656C118.883 143.656 119.323 143.6 119.723 143.488C120.123 143.376 120.467 143.216 120.755 143.008C121.043 142.8 121.267 142.56 121.427 142.288C121.587 142.016 121.667 141.72 121.667 141.4V139.36H119.123C118.019 139.36 117.211 139.52 116.699 139.84C116.203 140.16 115.955 140.624 115.955 141.232V141.736C115.955 142.344 116.171 142.816 116.603 143.152C117.051 143.488 117.651 143.656 118.403 143.656ZM135.663 142.984H135.567C134.815 144.52 133.607 145.288 131.943 145.288C131.175 145.288 130.479 145.136 129.855 144.832C129.231 144.528 128.695 144.096 128.247 143.536C127.815 142.976 127.479 142.296 127.239 141.496C127.015 140.696 126.903 139.8 126.903 138.808C126.903 137.816 127.015 136.92 127.239 136.12C127.479 135.32 127.815 134.64 128.247 134.08C128.695 133.52 129.231 133.088 129.855 132.784C130.479 132.48 131.175 132.328 131.943 132.328C132.807 132.328 133.543 132.52 134.151 132.904C134.775 133.272 135.247 133.848 135.567 134.632H135.663V127.24H137.583V145H135.663V142.984ZM132.471 143.56C132.903 143.56 133.311 143.504 133.695 143.392C134.095 143.28 134.439 143.12 134.727 142.912C135.015 142.688 135.239 142.424 135.399 142.12C135.575 141.8 135.663 141.44 135.663 141.04V136.432C135.663 136.096 135.575 135.784 135.399 135.496C135.239 135.192 135.015 134.936 134.727 134.728C134.439 134.52 134.095 134.36 133.695 134.248C133.311 134.12 132.903 134.056 132.471 134.056C131.383 134.056 130.527 134.4 129.903 135.088C129.279 135.76 128.967 136.648 128.967 137.752V139.864C128.967 140.968 129.279 141.864 129.903 142.552C130.527 143.224 131.383 143.56 132.471 143.56ZM142.625 129.712C142.209 129.712 141.905 129.616 141.713 129.424C141.537 129.216 141.449 128.952 141.449 128.632V128.32C141.449 128 141.537 127.744 141.713 127.552C141.905 127.344 142.209 127.24 142.625 127.24C143.041 127.24 143.337 127.344 143.513 127.552C143.705 127.744 143.801 128 143.801 128.32V128.632C143.801 128.952 143.705 129.216 143.513 129.424C143.337 129.616 143.041 129.712 142.625 129.712ZM141.665 132.616H143.585V145H141.665V132.616ZM147.665 145V132.616H149.585V134.632H149.681C149.985 133.928 150.409 133.368 150.953 132.952C151.513 132.536 152.257 132.328 153.185 132.328C154.465 132.328 155.473 132.744 156.209 133.576C156.961 134.392 157.337 135.552 157.337 137.056V145H155.417V137.392C155.417 135.168 154.481 134.056 152.609 134.056C152.225 134.056 151.849 134.104 151.481 134.2C151.129 134.296 150.809 134.44 150.521 134.632C150.233 134.824 150.001 135.072 149.825 135.376C149.665 135.664 149.585 136.008 149.585 136.408V145H147.665ZM171.746 146.368C171.746 147.648 171.242 148.584 170.234 149.176C169.242 149.784 167.746 150.088 165.746 150.088C163.81 150.088 162.418 149.824 161.57 149.296C160.722 148.768 160.298 148.016 160.298 147.04C160.298 146.368 160.474 145.84 160.826 145.456C161.178 145.088 161.658 144.816 162.266 144.64V144.376C161.53 144.024 161.162 143.448 161.162 142.648C161.162 142.024 161.362 141.552 161.762 141.232C162.162 140.896 162.674 140.648 163.298 140.488V140.392C162.562 140.04 161.986 139.536 161.57 138.88C161.17 138.224 160.97 137.464 160.97 136.6C160.97 135.976 161.082 135.4 161.306 134.872C161.53 134.344 161.842 133.896 162.242 133.528C162.658 133.144 163.146 132.848 163.706 132.64C164.282 132.432 164.922 132.328 165.626 132.328C166.506 132.328 167.29 132.488 167.978 132.808V132.592C167.978 132.112 168.09 131.72 168.314 131.416C168.538 131.096 168.906 130.936 169.418 130.936H171.266V132.616H168.914V133.408C169.362 133.792 169.706 134.256 169.946 134.8C170.202 135.328 170.33 135.928 170.33 136.6C170.33 137.224 170.218 137.8 169.994 138.328C169.77 138.856 169.45 139.312 169.034 139.696C168.634 140.064 168.146 140.352 167.57 140.56C166.994 140.768 166.354 140.872 165.65 140.872C165.25 140.872 164.85 140.832 164.45 140.752C164.034 140.864 163.658 141.032 163.322 141.256C162.986 141.464 162.818 141.76 162.818 142.144C162.818 142.512 162.994 142.76 163.346 142.888C163.698 143.016 164.154 143.08 164.714 143.08H167.354C168.89 143.08 170.002 143.376 170.69 143.968C171.394 144.544 171.746 145.344 171.746 146.368ZM169.946 146.512C169.946 146.016 169.754 145.616 169.37 145.312C169.002 145.024 168.338 144.88 167.378 144.88H163.25C162.482 145.232 162.098 145.792 162.098 146.56C162.098 147.104 162.298 147.568 162.698 147.952C163.114 148.336 163.81 148.528 164.786 148.528H166.562C167.634 148.528 168.466 148.36 169.058 148.024C169.65 147.688 169.946 147.184 169.946 146.512ZM165.65 139.336C166.466 139.336 167.114 139.144 167.594 138.76C168.074 138.36 168.314 137.752 168.314 136.936V136.264C168.314 135.448 168.074 134.848 167.594 134.464C167.114 134.064 166.466 133.864 165.65 133.864C164.834 133.864 164.186 134.064 163.706 134.464C163.226 134.848 162.986 135.448 162.986 136.264V136.936C162.986 137.752 163.226 138.36 163.706 138.76C164.186 139.144 164.834 139.336 165.65 139.336ZM190.409 145H179.417V142.936L184.889 137.896C185.673 137.176 186.329 136.416 186.857 135.616C187.385 134.8 187.649 133.984 187.649 133.168V132.88C187.649 131.952 187.393 131.2 186.881 130.624C186.369 130.048 185.593 129.76 184.553 129.76C184.041 129.76 183.593 129.832 183.209 129.976C182.825 130.12 182.489 130.32 182.201 130.576C181.929 130.832 181.697 131.136 181.505 131.488C181.329 131.824 181.185 132.192 181.073 132.592L179.273 131.896C179.433 131.4 179.649 130.92 179.921 130.456C180.209 129.976 180.561 129.552 180.977 129.184C181.409 128.816 181.921 128.52 182.513 128.296C183.121 128.072 183.833 127.96 184.649 127.96C185.465 127.96 186.193 128.08 186.833 128.32C187.473 128.56 188.009 128.896 188.441 129.328C188.873 129.76 189.201 130.272 189.425 130.864C189.665 131.456 189.785 132.112 189.785 132.832C189.785 133.488 189.689 134.096 189.497 134.656C189.321 135.216 189.073 135.752 188.753 136.264C188.433 136.76 188.041 137.248 187.577 137.728C187.129 138.208 186.641 138.688 186.113 139.168L181.601 143.224H190.409V145ZM195.272 145.288C194.76 145.288 194.384 145.16 194.144 144.904C193.92 144.648 193.808 144.312 193.808 143.896V143.584C193.808 143.168 193.92 142.832 194.144 142.576C194.384 142.32 194.76 142.192 195.272 142.192C195.784 142.192 196.152 142.32 196.376 142.576C196.616 142.832 196.736 143.168 196.736 143.584V143.896C196.736 144.312 196.616 144.648 196.376 144.904C196.152 145.16 195.784 145.288 195.272 145.288Z" fill="black"/>
<rect width="320" height="72" transform="translate(16 192)" fill="#F0F0F0"/>
<path d="M38.56 216.52V229H36.88V216.52H32.44V215.04H43V216.52H38.56ZM45.1453 214.2H46.7453V220.36H46.8253C47.0786 219.773 47.432 219.307 47.8853 218.96C48.352 218.613 48.972 218.44 49.7453 218.44C50.812 218.44 51.652 218.787 52.2653 219.48C52.892 220.16 53.2053 221.127 53.2053 222.38V229H51.6053V222.66C51.6053 220.807 50.8253 219.88 49.2653 219.88C48.9453 219.88 48.632 219.92 48.3253 220C48.032 220.08 47.7653 220.2 47.5253 220.36C47.2853 220.52 47.092 220.727 46.9453 220.98C46.812 221.22 46.7453 221.507 46.7453 221.84V229H45.1453V214.2ZM57.3125 216.26C56.9658 216.26 56.7125 216.18 56.5525 216.02C56.4058 215.847 56.3325 215.627 56.3325 215.36V215.1C56.3325 214.833 56.4058 214.62 56.5525 214.46C56.7125 214.287 56.9658 214.2 57.3125 214.2C57.6592 214.2 57.9058 214.287 58.0525 214.46C58.2125 214.62 58.2925 214.833 58.2925 215.1V215.36C58.2925 215.627 58.2125 215.847 58.0525 216.02C57.9058 216.18 57.6592 216.26 57.3125 216.26ZM56.5125 218.68H58.1125V229H56.5125V218.68ZM64.6125 229.24C63.6525 229.24 62.8458 229.06 62.1925 228.7C61.5525 228.327 60.9992 227.833 60.5325 227.22L61.6725 226.3C62.0725 226.807 62.5192 227.2 63.0125 227.48C63.5058 227.747 64.0792 227.88 64.7325 227.88C65.4125 227.88 65.9392 227.733 66.3125 227.44C66.6992 227.147 66.8925 226.733 66.8925 226.2C66.8925 225.8 66.7592 225.46 66.4925 225.18C66.2392 224.887 65.7725 224.687 65.0925 224.58L64.2725 224.46C63.7925 224.393 63.3525 224.293 62.9525 224.16C62.5525 224.013 62.1992 223.827 61.8925 223.6C61.5992 223.36 61.3658 223.067 61.1925 222.72C61.0325 222.373 60.9525 221.96 60.9525 221.48C60.9525 220.973 61.0458 220.533 61.2325 220.16C61.4192 219.773 61.6725 219.453 61.9925 219.2C62.3258 218.947 62.7192 218.76 63.1725 218.64C63.6258 218.507 64.1125 218.44 64.6325 218.44C65.4725 218.44 66.1725 218.587 66.7325 218.88C67.3058 219.173 67.8058 219.58 68.2325 220.1L67.1725 221.06C66.9458 220.74 66.6125 220.453 66.1725 220.2C65.7325 219.933 65.1792 219.8 64.5125 219.8C63.8458 219.8 63.3392 219.947 62.9925 220.24C62.6592 220.52 62.4925 220.907 62.4925 221.4C62.4925 221.907 62.6592 222.273 62.9925 222.5C63.3392 222.727 63.8325 222.893 64.4725 223L65.2725 223.12C66.4192 223.293 67.2325 223.627 67.7125 224.12C68.1925 224.6 68.4325 225.233 68.4325 226.02C68.4325 227.02 68.0925 227.807 67.4125 228.38C66.7325 228.953 65.7992 229.24 64.6125 229.24ZM84.8852 222.68H77.8252V229H76.1452V215.04H77.8252V221.2H84.8852V215.04H86.5652V229H84.8852V222.68ZM94.0058 229.24C93.2991 229.24 92.6591 229.113 92.0858 228.86C91.5258 228.607 91.0391 228.247 90.6258 227.78C90.2258 227.3 89.9124 226.733 89.6858 226.08C89.4724 225.413 89.3658 224.667 89.3658 223.84C89.3658 223.027 89.4724 222.287 89.6858 221.62C89.9124 220.953 90.2258 220.387 90.6258 219.92C91.0391 219.44 91.5258 219.073 92.0858 218.82C92.6591 218.567 93.2991 218.44 94.0058 218.44C94.6991 218.44 95.3191 218.567 95.8658 218.82C96.4124 219.073 96.8791 219.427 97.2658 219.88C97.6524 220.32 97.9458 220.847 98.1458 221.46C98.3591 222.073 98.4658 222.747 98.4658 223.48V224.24H91.0458V224.72C91.0458 225.16 91.1124 225.573 91.2458 225.96C91.3924 226.333 91.5924 226.66 91.8458 226.94C92.1124 227.22 92.4324 227.44 92.8058 227.6C93.1924 227.76 93.6258 227.84 94.1058 227.84C94.7591 227.84 95.3258 227.687 95.8058 227.38C96.2991 227.073 96.6791 226.633 96.9458 226.06L98.0858 226.88C97.7524 227.587 97.2324 228.16 96.5258 228.6C95.8191 229.027 94.9791 229.24 94.0058 229.24ZM94.0058 219.78C93.5658 219.78 93.1658 219.86 92.8058 220.02C92.4458 220.167 92.1324 220.38 91.8658 220.66C91.6124 220.94 91.4124 221.273 91.2658 221.66C91.1191 222.033 91.0458 222.447 91.0458 222.9V223.04H96.7458V222.82C96.7458 221.9 96.4924 221.167 95.9858 220.62C95.4924 220.06 94.8324 219.78 94.0058 219.78ZM108.602 229C108.002 229 107.569 228.84 107.302 228.52C107.049 228.2 106.889 227.8 106.822 227.32H106.722C106.496 227.96 106.122 228.44 105.602 228.76C105.082 229.08 104.462 229.24 103.742 229.24C102.649 229.24 101.796 228.96 101.182 228.4C100.582 227.84 100.282 227.08 100.282 226.12C100.282 225.147 100.636 224.4 101.342 223.88C102.062 223.36 103.176 223.1 104.682 223.1H106.722V222.08C106.722 221.347 106.522 220.787 106.122 220.4C105.722 220.013 105.109 219.82 104.282 219.82C103.656 219.82 103.129 219.96 102.702 220.24C102.289 220.52 101.942 220.893 101.662 221.36L100.702 220.46C100.982 219.9 101.429 219.427 102.042 219.04C102.656 218.64 103.429 218.44 104.362 218.44C105.616 218.44 106.589 218.747 107.282 219.36C107.976 219.973 108.322 220.827 108.322 221.92V227.6H109.502V229H108.602ZM104.002 227.88C104.402 227.88 104.769 227.833 105.102 227.74C105.436 227.647 105.722 227.513 105.962 227.34C106.202 227.167 106.389 226.967 106.522 226.74C106.656 226.513 106.722 226.267 106.722 226V224.3H104.602C103.682 224.3 103.009 224.433 102.582 224.7C102.169 224.967 101.962 225.353 101.962 225.86V226.28C101.962 226.787 102.142 227.18 102.502 227.46C102.876 227.74 103.376 227.88 104.002 227.88ZM118.386 227.32H118.306C117.679 228.6 116.673 229.24 115.286 229.24C114.646 229.24 114.066 229.113 113.546 228.86C113.026 228.607 112.579 228.247 112.206 227.78C111.846 227.313 111.566 226.747 111.366 226.08C111.179 225.413 111.086 224.667 111.086 223.84C111.086 223.013 111.179 222.267 111.366 221.6C111.566 220.933 111.846 220.367 112.206 219.9C112.579 219.433 113.026 219.073 113.546 218.82C114.066 218.567 114.646 218.44 115.286 218.44C116.006 218.44 116.619 218.6 117.126 218.92C117.646 219.227 118.039 219.707 118.306 220.36H118.386V214.2H119.986V229H118.386V227.32ZM115.726 227.8C116.086 227.8 116.426 227.753 116.746 227.66C117.079 227.567 117.366 227.433 117.606 227.26C117.846 227.073 118.033 226.853 118.166 226.6C118.313 226.333 118.386 226.033 118.386 225.7V221.86C118.386 221.58 118.313 221.32 118.166 221.08C118.033 220.827 117.846 220.613 117.606 220.44C117.366 220.267 117.079 220.133 116.746 220.04C116.426 219.933 116.086 219.88 115.726 219.88C114.819 219.88 114.106 220.167 113.586 220.74C113.066 221.3 112.806 222.04 112.806 222.96V224.72C112.806 225.64 113.066 226.387 113.586 226.96C114.106 227.52 114.819 227.8 115.726 227.8ZM124.188 216.26C123.841 216.26 123.588 216.18 123.428 216.02C123.281 215.847 123.208 215.627 123.208 215.36V215.1C123.208 214.833 123.281 214.62 123.428 214.46C123.588 214.287 123.841 214.2 124.188 214.2C124.534 214.2 124.781 214.287 124.928 214.46C125.088 214.62 125.168 214.833 125.168 215.1V215.36C125.168 215.627 125.088 215.847 124.928 216.02C124.781 216.18 124.534 216.26 124.188 216.26ZM123.388 218.68H124.988V229H123.388V218.68ZM128.388 229V218.68H129.988V220.36H130.068C130.321 219.773 130.674 219.307 131.128 218.96C131.594 218.613 132.214 218.44 132.988 218.44C134.054 218.44 134.894 218.787 135.508 219.48C136.134 220.16 136.448 221.127 136.448 222.38V229H134.848V222.66C134.848 220.807 134.068 219.88 132.508 219.88C132.188 219.88 131.874 219.92 131.568 220C131.274 220.08 131.008 220.2 130.768 220.36C130.528 220.52 130.334 220.727 130.188 220.98C130.054 221.22 129.988 221.507 129.988 221.84V229H128.388ZM148.455 230.14C148.455 231.207 148.035 231.987 147.195 232.48C146.368 232.987 145.121 233.24 143.455 233.24C141.841 233.24 140.681 233.02 139.975 232.58C139.268 232.14 138.915 231.513 138.915 230.7C138.915 230.14 139.061 229.7 139.355 229.38C139.648 229.073 140.048 228.847 140.555 228.7V228.48C139.941 228.187 139.635 227.707 139.635 227.04C139.635 226.52 139.801 226.127 140.135 225.86C140.468 225.58 140.895 225.373 141.415 225.24V225.16C140.801 224.867 140.321 224.447 139.975 223.9C139.641 223.353 139.475 222.72 139.475 222C139.475 221.48 139.568 221 139.755 220.56C139.941 220.12 140.201 219.747 140.535 219.44C140.881 219.12 141.288 218.873 141.755 218.7C142.235 218.527 142.768 218.44 143.355 218.44C144.088 218.44 144.741 218.573 145.315 218.84V218.66C145.315 218.26 145.408 217.933 145.595 217.68C145.781 217.413 146.088 217.28 146.515 217.28H148.055V218.68H146.095V219.34C146.468 219.66 146.755 220.047 146.955 220.5C147.168 220.94 147.275 221.44 147.275 222C147.275 222.52 147.181 223 146.995 223.44C146.808 223.88 146.541 224.26 146.195 224.58C145.861 224.887 145.455 225.127 144.975 225.3C144.495 225.473 143.961 225.56 143.375 225.56C143.041 225.56 142.708 225.527 142.375 225.46C142.028 225.553 141.715 225.693 141.435 225.88C141.155 226.053 141.015 226.3 141.015 226.62C141.015 226.927 141.161 227.133 141.455 227.24C141.748 227.347 142.128 227.4 142.595 227.4H144.795C146.075 227.4 147.001 227.647 147.575 228.14C148.161 228.62 148.455 229.287 148.455 230.14ZM146.955 230.26C146.955 229.847 146.795 229.513 146.475 229.26C146.168 229.02 145.615 228.9 144.815 228.9H141.375C140.735 229.193 140.415 229.66 140.415 230.3C140.415 230.753 140.581 231.14 140.915 231.46C141.261 231.78 141.841 231.94 142.655 231.94H144.135C145.028 231.94 145.721 231.8 146.215 231.52C146.708 231.24 146.955 230.82 146.955 230.26ZM143.375 224.28C144.055 224.28 144.595 224.12 144.995 223.8C145.395 223.467 145.595 222.96 145.595 222.28V221.72C145.595 221.04 145.395 220.54 144.995 220.22C144.595 219.887 144.055 219.72 143.375 219.72C142.695 219.72 142.155 219.887 141.755 220.22C141.355 220.54 141.155 221.04 141.155 221.72V222.28C141.155 222.96 141.355 223.467 141.755 223.8C142.155 224.12 142.695 224.28 143.375 224.28ZM158.568 220.96C159.514 220.96 160.221 220.747 160.688 220.32C161.168 219.88 161.408 219.32 161.408 218.64V218.5C161.408 217.767 161.174 217.22 160.708 216.86C160.254 216.487 159.654 216.3 158.908 216.3C158.188 216.3 157.601 216.46 157.148 216.78C156.694 217.087 156.321 217.507 156.028 218.04L154.788 217.08C154.961 216.8 155.168 216.527 155.408 216.26C155.661 215.98 155.954 215.733 156.288 215.52C156.621 215.307 157.008 215.133 157.448 215C157.888 214.867 158.388 214.8 158.948 214.8C159.534 214.8 160.088 214.88 160.608 215.04C161.128 215.187 161.574 215.413 161.948 215.72C162.334 216.013 162.634 216.38 162.848 216.82C163.074 217.26 163.188 217.76 163.188 218.32C163.188 218.773 163.114 219.18 162.968 219.54C162.834 219.9 162.648 220.213 162.408 220.48C162.168 220.747 161.881 220.973 161.548 221.16C161.228 221.347 160.881 221.487 160.508 221.58V221.66C160.881 221.74 161.241 221.873 161.588 222.06C161.948 222.233 162.261 222.467 162.528 222.76C162.808 223.04 163.028 223.387 163.188 223.8C163.361 224.2 163.448 224.66 163.448 225.18C163.448 225.78 163.334 226.333 163.108 226.84C162.881 227.333 162.561 227.76 162.148 228.12C161.734 228.467 161.234 228.74 160.648 228.94C160.061 229.14 159.414 229.24 158.708 229.24C158.108 229.24 157.574 229.173 157.108 229.04C156.641 228.907 156.228 228.727 155.868 228.5C155.508 228.273 155.188 228.02 154.908 227.74C154.641 227.46 154.401 227.167 154.188 226.86L155.448 225.9C155.621 226.18 155.808 226.433 156.008 226.66C156.221 226.887 156.454 227.08 156.708 227.24C156.961 227.4 157.248 227.527 157.568 227.62C157.888 227.7 158.261 227.74 158.688 227.74C159.674 227.74 160.421 227.52 160.928 227.08C161.434 226.627 161.688 225.987 161.688 225.16V225C161.688 224.173 161.434 223.54 160.928 223.1C160.421 222.647 159.674 222.42 158.688 222.42H157.048V220.96H158.568ZM168.06 229.24C167.633 229.24 167.32 229.133 167.12 228.92C166.933 228.707 166.84 228.427 166.84 228.08V227.82C166.84 227.473 166.933 227.193 167.12 226.98C167.32 226.767 167.633 226.66 168.06 226.66C168.487 226.66 168.793 226.767 168.98 226.98C169.18 227.193 169.28 227.473 169.28 227.82V228.08C169.28 228.427 169.18 228.707 168.98 228.92C168.793 229.133 168.487 229.24 168.06 229.24Z" fill="black"/>
<rect x="336.5" y="0.5" width="351" height="279" rx="4.5" stroke="#9747FF" stroke-dasharray="10 5"/>
<rect width="320" height="72" transform="translate(352 16)" fill="#121212"/>
<path d="M378.496 45.032V65H375.808V45.032H368.704V42.664H385.6V45.032H378.496ZM389.033 41.32H391.593V51.176H391.721C392.126 50.2373 392.691 49.4907 393.417 48.936C394.163 48.3813 395.155 48.104 396.393 48.104C398.099 48.104 399.443 48.6587 400.425 49.768C401.427 50.856 401.929 52.4027 401.929 54.408V65H399.369V54.856C399.369 51.8907 398.121 50.408 395.625 50.408C395.113 50.408 394.611 50.472 394.121 50.6C393.651 50.728 393.225 50.92 392.841 51.176C392.457 51.432 392.147 51.7627 391.913 52.168C391.699 52.552 391.593 53.0107 391.593 53.544V65H389.033V41.32ZM408.5 44.616C407.945 44.616 407.54 44.488 407.284 44.232C407.049 43.9547 406.932 43.6027 406.932 43.176V42.76C406.932 42.3333 407.049 41.992 407.284 41.736C407.54 41.4587 407.945 41.32 408.5 41.32C409.055 41.32 409.449 41.4587 409.684 41.736C409.94 41.992 410.068 42.3333 410.068 42.76V43.176C410.068 43.6027 409.94 43.9547 409.684 44.232C409.449 44.488 409.055 44.616 408.5 44.616ZM407.22 48.488H409.78V65H407.22V48.488ZM420.18 65.384C418.644 65.384 417.353 65.096 416.308 64.52C415.284 63.9227 414.399 63.1333 413.652 62.152L415.476 60.68C416.116 61.4907 416.831 62.12 417.62 62.568C418.409 62.9947 419.327 63.208 420.372 63.208C421.46 63.208 422.303 62.9733 422.9 62.504C423.519 62.0347 423.828 61.3733 423.828 60.52C423.828 59.88 423.615 59.336 423.188 58.888C422.783 58.4187 422.036 58.0987 420.948 57.928L419.636 57.736C418.868 57.6293 418.164 57.4693 417.524 57.256C416.884 57.0213 416.319 56.7227 415.828 56.36C415.359 55.976 414.985 55.5067 414.708 54.952C414.452 54.3973 414.324 53.736 414.324 52.968C414.324 52.1573 414.473 51.4533 414.772 50.856C415.071 50.2373 415.476 49.7253 415.988 49.32C416.521 48.9147 417.151 48.616 417.876 48.424C418.601 48.2107 419.38 48.104 420.212 48.104C421.556 48.104 422.676 48.3387 423.572 48.808C424.489 49.2773 425.289 49.928 425.972 50.76L424.276 52.296C423.913 51.784 423.38 51.3253 422.676 50.92C421.972 50.4933 421.087 50.28 420.02 50.28C418.953 50.28 418.143 50.5147 417.588 50.984C417.055 51.432 416.788 52.0507 416.788 52.84C416.788 53.6507 417.055 54.2373 417.588 54.6C418.143 54.9627 418.932 55.2293 419.956 55.4L421.236 55.592C423.071 55.8693 424.372 56.4027 425.14 57.192C425.908 57.96 426.292 58.9733 426.292 60.232C426.292 61.832 425.748 63.0907 424.66 64.008C423.572 64.9253 422.079 65.384 420.18 65.384ZM452.616 54.888H441.32V65H438.632V42.664H441.32V52.52H452.616V42.664H455.304V65H452.616V54.888ZM467.209 65.384C466.079 65.384 465.055 65.1813 464.137 64.776C463.241 64.3707 462.463 63.7947 461.801 63.048C461.161 62.28 460.66 61.3733 460.297 60.328C459.956 59.2613 459.785 58.0667 459.785 56.744C459.785 55.4427 459.956 54.2587 460.297 53.192C460.66 52.1253 461.161 51.2187 461.801 50.472C462.463 49.704 463.241 49.1173 464.137 48.712C465.055 48.3067 466.079 48.104 467.209 48.104C468.319 48.104 469.311 48.3067 470.185 48.712C471.06 49.1173 471.807 49.6827 472.425 50.408C473.044 51.112 473.513 51.9547 473.833 52.936C474.175 53.9173 474.345 54.9947 474.345 56.168V57.384H462.473V58.152C462.473 58.856 462.58 59.5173 462.793 60.136C463.028 60.7333 463.348 61.256 463.753 61.704C464.18 62.152 464.692 62.504 465.289 62.76C465.908 63.016 466.601 63.144 467.369 63.144C468.415 63.144 469.321 62.8987 470.089 62.408C470.879 61.9173 471.487 61.2133 471.913 60.296L473.737 61.608C473.204 62.7387 472.372 63.656 471.241 64.36C470.111 65.0427 468.767 65.384 467.209 65.384ZM467.209 50.248C466.505 50.248 465.865 50.376 465.289 50.632C464.713 50.8667 464.212 51.208 463.785 51.656C463.38 52.104 463.06 52.6373 462.825 53.256C462.591 53.8533 462.473 54.5147 462.473 55.24V55.464H471.593V55.112C471.593 53.64 471.188 52.4667 470.377 51.592C469.588 50.696 468.532 50.248 467.209 50.248ZM490.564 65C489.604 65 488.91 64.744 488.484 64.232C488.078 63.72 487.822 63.08 487.716 62.312H487.556C487.193 63.336 486.596 64.104 485.764 64.616C484.932 65.128 483.94 65.384 482.788 65.384C481.038 65.384 479.673 64.936 478.692 64.04C477.732 63.144 477.252 61.928 477.252 60.392C477.252 58.8347 477.817 57.64 478.948 56.808C480.1 55.976 481.881 55.56 484.292 55.56H487.556V53.928C487.556 52.7547 487.236 51.8587 486.596 51.24C485.956 50.6213 484.974 50.312 483.652 50.312C482.649 50.312 481.806 50.536 481.124 50.984C480.462 51.432 479.908 52.0293 479.46 52.776L477.924 51.336C478.372 50.44 479.086 49.6827 480.068 49.064C481.049 48.424 482.286 48.104 483.78 48.104C485.785 48.104 487.342 48.5947 488.452 49.576C489.561 50.5573 490.116 51.9227 490.116 53.672V62.76H492.004V65H490.564ZM483.204 63.208C483.844 63.208 484.43 63.1333 484.964 62.984C485.497 62.8347 485.956 62.6213 486.34 62.344C486.724 62.0667 487.022 61.7467 487.236 61.384C487.449 61.0213 487.556 60.6267 487.556 60.2V57.48H484.164C482.692 57.48 481.614 57.6933 480.932 58.12C480.27 58.5467 479.94 59.1653 479.94 59.976V60.648C479.94 61.4587 480.228 62.088 480.804 62.536C481.401 62.984 482.201 63.208 483.204 63.208ZM506.218 62.312H506.09C505.087 64.36 503.476 65.384 501.258 65.384C500.234 65.384 499.306 65.1813 498.474 64.776C497.642 64.3707 496.927 63.7947 496.33 63.048C495.754 62.3013 495.306 61.3947 494.986 60.328C494.687 59.2613 494.538 58.0667 494.538 56.744C494.538 55.4213 494.687 54.2267 494.986 53.16C495.306 52.0933 495.754 51.1867 496.33 50.44C496.927 49.6933 497.642 49.1173 498.474 48.712C499.306 48.3067 500.234 48.104 501.258 48.104C502.41 48.104 503.391 48.36 504.202 48.872C505.034 49.3627 505.663 50.1307 506.09 51.176H506.218V41.32H508.778V65H506.218V62.312ZM501.962 63.08C502.538 63.08 503.082 63.0053 503.594 62.856C504.127 62.7067 504.586 62.4933 504.97 62.216C505.354 61.9173 505.652 61.5653 505.866 61.16C506.1 60.7333 506.218 60.2533 506.218 59.72V53.576C506.218 53.128 506.1 52.712 505.866 52.328C505.652 51.9227 505.354 51.5813 504.97 51.304C504.586 51.0267 504.127 50.8133 503.594 50.664C503.082 50.4933 502.538 50.408 501.962 50.408C500.511 50.408 499.37 50.8667 498.538 51.784C497.706 52.68 497.29 53.864 497.29 55.336V58.152C497.29 59.624 497.706 60.8187 498.538 61.736C499.37 62.632 500.511 63.08 501.962 63.08ZM515.5 44.616C514.945 44.616 514.54 44.488 514.284 44.232C514.049 43.9547 513.932 43.6027 513.932 43.176V42.76C513.932 42.3333 514.049 41.992 514.284 41.736C514.54 41.4587 514.945 41.32 515.5 41.32C516.055 41.32 516.449 41.4587 516.684 41.736C516.94 41.992 517.068 42.3333 517.068 42.76V43.176C517.068 43.6027 516.94 43.9547 516.684 44.232C516.449 44.488 516.055 44.616 515.5 44.616ZM514.22 48.488H516.78V65H514.22V48.488ZM522.22 65V48.488H524.78V51.176H524.908C525.313 50.2373 525.879 49.4907 526.604 48.936C527.351 48.3813 528.343 48.104 529.58 48.104C531.287 48.104 532.631 48.6587 533.612 49.768C534.615 50.856 535.116 52.4027 535.116 54.408V65H532.556V54.856C532.556 51.8907 531.308 50.408 528.812 50.408C528.3 50.408 527.799 50.472 527.308 50.6C526.839 50.728 526.412 50.92 526.028 51.176C525.644 51.432 525.335 51.7627 525.1 52.168C524.887 52.552 524.78 53.0107 524.78 53.544V65H522.22ZM554.328 66.824C554.328 68.5307 553.656 69.7787 552.312 70.568C550.989 71.3787 548.994 71.784 546.328 71.784C543.746 71.784 541.89 71.432 540.76 70.728C539.629 70.024 539.064 69.0213 539.064 67.72C539.064 66.824 539.298 66.12 539.768 65.608C540.237 65.1173 540.877 64.7547 541.688 64.52V64.168C540.706 63.6987 540.216 62.9307 540.216 61.864C540.216 61.032 540.482 60.4027 541.016 59.976C541.549 59.528 542.232 59.1973 543.064 58.984V58.856C542.082 58.3867 541.314 57.7147 540.76 56.84C540.226 55.9653 539.96 54.952 539.96 53.8C539.96 52.968 540.109 52.2 540.408 51.496C540.706 50.792 541.122 50.1947 541.656 49.704C542.21 49.192 542.861 48.7973 543.608 48.52C544.376 48.2427 545.229 48.104 546.168 48.104C547.341 48.104 548.386 48.3173 549.304 48.744V48.456C549.304 47.816 549.453 47.2933 549.752 46.888C550.05 46.4613 550.541 46.248 551.224 46.248H553.688V48.488H550.552V49.544C551.149 50.056 551.608 50.6747 551.928 51.4C552.269 52.104 552.44 52.904 552.44 53.8C552.44 54.632 552.29 55.4 551.992 56.104C551.693 56.808 551.266 57.416 550.712 57.928C550.178 58.4187 549.528 58.8027 548.76 59.08C547.992 59.3573 547.138 59.496 546.2 59.496C545.666 59.496 545.133 59.4427 544.6 59.336C544.045 59.4853 543.544 59.7093 543.096 60.008C542.648 60.2853 542.424 60.68 542.424 61.192C542.424 61.6827 542.658 62.0133 543.128 62.184C543.597 62.3547 544.205 62.44 544.952 62.44H548.472C550.52 62.44 552.002 62.8347 552.92 63.624C553.858 64.392 554.328 65.4587 554.328 66.824ZM551.928 67.016C551.928 66.3547 551.672 65.8213 551.16 65.416C550.669 65.032 549.784 64.84 548.504 64.84H543C541.976 65.3093 541.464 66.056 541.464 67.08C541.464 67.8053 541.73 68.424 542.264 68.936C542.818 69.448 543.746 69.704 545.048 69.704H547.416C548.845 69.704 549.954 69.48 550.744 69.032C551.533 68.584 551.928 67.912 551.928 67.016ZM546.2 57.448C547.288 57.448 548.152 57.192 548.792 56.68C549.432 56.1467 549.752 55.336 549.752 54.248V53.352C549.752 52.264 549.432 51.464 548.792 50.952C548.152 50.4187 547.288 50.152 546.2 50.152C545.112 50.152 544.248 50.4187 543.608 50.952C542.968 51.464 542.648 52.264 542.648 53.352V54.248C542.648 55.336 542.968 56.1467 543.608 56.68C544.248 57.192 545.112 57.448 546.2 57.448ZM564.972 65V62.632H571.212V44.648H570.988L565.356 49.896L563.788 48.2L569.708 42.664H573.9V62.632H579.66V65H564.972ZM585.696 65.384C585.013 65.384 584.512 65.2133 584.192 64.872C583.893 64.5307 583.744 64.0827 583.744 63.528V63.112C583.744 62.5573 583.893 62.1093 584.192 61.768C584.512 61.4267 585.013 61.256 585.696 61.256C586.378 61.256 586.869 61.4267 587.168 61.768C587.488 62.1093 587.648 62.5573 587.648 63.112V63.528C587.648 64.0827 587.488 64.5307 587.168 64.872C586.869 65.2133 586.378 65.384 585.696 65.384Z" fill="#E0E0E0"/>
<rect width="320" height="72" transform="translate(352 104)" fill="#121212"/>
<path d="M375.872 130.024V145H373.856V130.024H368.528V128.248H381.2V130.024H375.872ZM383.774 127.24H385.694V134.632H385.79C386.094 133.928 386.518 133.368 387.062 132.952C387.622 132.536 388.366 132.328 389.294 132.328C390.574 132.328 391.582 132.744 392.318 133.576C393.07 134.392 393.446 135.552 393.446 137.056V145H391.526V137.392C391.526 135.168 390.59 134.056 388.718 134.056C388.334 134.056 387.958 134.104 387.59 134.2C387.238 134.296 386.918 134.44 386.63 134.632C386.342 134.824 386.11 135.072 385.934 135.376C385.774 135.664 385.694 136.008 385.694 136.408V145H383.774V127.24ZM398.375 129.712C397.959 129.712 397.655 129.616 397.463 129.424C397.287 129.216 397.199 128.952 397.199 128.632V128.32C397.199 128 397.287 127.744 397.463 127.552C397.655 127.344 397.959 127.24 398.375 127.24C398.791 127.24 399.087 127.344 399.263 127.552C399.455 127.744 399.551 128 399.551 128.32V128.632C399.551 128.952 399.455 129.216 399.263 129.424C399.087 129.616 398.791 129.712 398.375 129.712ZM397.415 132.616H399.335V145H397.415V132.616ZM407.135 145.288C405.983 145.288 405.015 145.072 404.231 144.64C403.463 144.192 402.799 143.6 402.239 142.864L403.607 141.76C404.087 142.368 404.623 142.84 405.215 143.176C405.807 143.496 406.495 143.656 407.279 143.656C408.095 143.656 408.727 143.48 409.175 143.128C409.639 142.776 409.871 142.28 409.871 141.64C409.871 141.16 409.711 140.752 409.391 140.416C409.087 140.064 408.527 139.824 407.711 139.696L406.727 139.552C406.151 139.472 405.623 139.352 405.143 139.192C404.663 139.016 404.239 138.792 403.871 138.52C403.519 138.232 403.239 137.88 403.031 137.464C402.839 137.048 402.743 136.552 402.743 135.976C402.743 135.368 402.855 134.84 403.079 134.392C403.303 133.928 403.607 133.544 403.991 133.24C404.391 132.936 404.863 132.712 405.407 132.568C405.951 132.408 406.535 132.328 407.159 132.328C408.167 132.328 409.007 132.504 409.679 132.856C410.367 133.208 410.967 133.696 411.479 134.32L410.207 135.472C409.935 135.088 409.535 134.744 409.007 134.44C408.479 134.12 407.815 133.96 407.015 133.96C406.215 133.96 405.607 134.136 405.191 134.488C404.791 134.824 404.591 135.288 404.591 135.88C404.591 136.488 404.791 136.928 405.191 137.2C405.607 137.472 406.199 137.672 406.967 137.8L407.927 137.944C409.303 138.152 410.279 138.552 410.855 139.144C411.431 139.72 411.719 140.48 411.719 141.424C411.719 142.624 411.311 143.568 410.495 144.256C409.679 144.944 408.559 145.288 407.135 145.288ZM431.462 137.416H422.99V145H420.974V128.248H422.99V135.64H431.462V128.248H433.478V145H431.462V137.416ZM442.407 145.288C441.559 145.288 440.791 145.136 440.103 144.832C439.431 144.528 438.847 144.096 438.351 143.536C437.871 142.96 437.495 142.28 437.223 141.496C436.967 140.696 436.839 139.8 436.839 138.808C436.839 137.832 436.967 136.944 437.223 136.144C437.495 135.344 437.871 134.664 438.351 134.104C438.847 133.528 439.431 133.088 440.103 132.784C440.791 132.48 441.559 132.328 442.407 132.328C443.239 132.328 443.983 132.48 444.639 132.784C445.295 133.088 445.855 133.512 446.319 134.056C446.783 134.584 447.135 135.216 447.375 135.952C447.631 136.688 447.759 137.496 447.759 138.376V139.288H438.855V139.864C438.855 140.392 438.935 140.888 439.095 141.352C439.271 141.8 439.511 142.192 439.815 142.528C440.135 142.864 440.519 143.128 440.967 143.32C441.431 143.512 441.951 143.608 442.527 143.608C443.311 143.608 443.991 143.424 444.567 143.056C445.159 142.688 445.615 142.16 445.935 141.472L447.303 142.456C446.903 143.304 446.279 143.992 445.431 144.52C444.583 145.032 443.575 145.288 442.407 145.288ZM442.407 133.936C441.879 133.936 441.399 134.032 440.967 134.224C440.535 134.4 440.159 134.656 439.839 134.992C439.535 135.328 439.295 135.728 439.119 136.192C438.943 136.64 438.855 137.136 438.855 137.68V137.848H445.695V137.584C445.695 136.48 445.391 135.6 444.783 134.944C444.191 134.272 443.399 133.936 442.407 133.936ZM459.923 145C459.203 145 458.683 144.808 458.363 144.424C458.059 144.04 457.867 143.56 457.787 142.984H457.667C457.395 143.752 456.947 144.328 456.323 144.712C455.699 145.096 454.955 145.288 454.091 145.288C452.779 145.288 451.755 144.952 451.019 144.28C450.299 143.608 449.939 142.696 449.939 141.544C449.939 140.376 450.363 139.48 451.211 138.856C452.075 138.232 453.411 137.92 455.219 137.92H457.667V136.696C457.667 135.816 457.427 135.144 456.947 134.68C456.467 134.216 455.731 133.984 454.739 133.984C453.987 133.984 453.355 134.152 452.843 134.488C452.347 134.824 451.931 135.272 451.595 135.832L450.443 134.752C450.779 134.08 451.315 133.512 452.051 133.048C452.787 132.568 453.715 132.328 454.835 132.328C456.339 132.328 457.507 132.696 458.339 133.432C459.171 134.168 459.587 135.192 459.587 136.504V143.32H461.003V145H459.923ZM454.403 143.656C454.883 143.656 455.323 143.6 455.723 143.488C456.123 143.376 456.467 143.216 456.755 143.008C457.043 142.8 457.267 142.56 457.427 142.288C457.587 142.016 457.667 141.72 457.667 141.4V139.36H455.123C454.019 139.36 453.211 139.52 452.699 139.84C452.203 140.16 451.955 140.624 451.955 141.232V141.736C451.955 142.344 452.171 142.816 452.603 143.152C453.051 143.488 453.651 143.656 454.403 143.656ZM471.663 142.984H471.567C470.815 144.52 469.607 145.288 467.943 145.288C467.175 145.288 466.479 145.136 465.855 144.832C465.231 144.528 464.695 144.096 464.247 143.536C463.815 142.976 463.479 142.296 463.239 141.496C463.015 140.696 462.903 139.8 462.903 138.808C462.903 137.816 463.015 136.92 463.239 136.12C463.479 135.32 463.815 134.64 464.247 134.08C464.695 133.52 465.231 133.088 465.855 132.784C466.479 132.48 467.175 132.328 467.943 132.328C468.807 132.328 469.543 132.52 470.151 132.904C470.775 133.272 471.247 133.848 471.567 134.632H471.663V127.24H473.583V145H471.663V142.984ZM468.471 143.56C468.903 143.56 469.311 143.504 469.695 143.392C470.095 143.28 470.439 143.12 470.727 142.912C471.015 142.688 471.239 142.424 471.399 142.12C471.575 141.8 471.663 141.44 471.663 141.04V136.432C471.663 136.096 471.575 135.784 471.399 135.496C471.239 135.192 471.015 134.936 470.727 134.728C470.439 134.52 470.095 134.36 469.695 134.248C469.311 134.12 468.903 134.056 468.471 134.056C467.383 134.056 466.527 134.4 465.903 135.088C465.279 135.76 464.967 136.648 464.967 137.752V139.864C464.967 140.968 465.279 141.864 465.903 142.552C466.527 143.224 467.383 143.56 468.471 143.56ZM478.625 129.712C478.209 129.712 477.905 129.616 477.713 129.424C477.537 129.216 477.449 128.952 477.449 128.632V128.32C477.449 128 477.537 127.744 477.713 127.552C477.905 127.344 478.209 127.24 478.625 127.24C479.041 127.24 479.337 127.344 479.513 127.552C479.705 127.744 479.801 128 479.801 128.32V128.632C479.801 128.952 479.705 129.216 479.513 129.424C479.337 129.616 479.041 129.712 478.625 129.712ZM477.665 132.616H479.585V145H477.665V132.616ZM483.665 145V132.616H485.585V134.632H485.681C485.985 133.928 486.409 133.368 486.953 132.952C487.513 132.536 488.257 132.328 489.185 132.328C490.465 132.328 491.473 132.744 492.209 133.576C492.961 134.392 493.337 135.552 493.337 137.056V145H491.417V137.392C491.417 135.168 490.481 134.056 488.609 134.056C488.225 134.056 487.849 134.104 487.481 134.2C487.129 134.296 486.809 134.44 486.521 134.632C486.233 134.824 486.001 135.072 485.825 135.376C485.665 135.664 485.585 136.008 485.585 136.408V145H483.665ZM507.746 146.368C507.746 147.648 507.242 148.584 506.234 149.176C505.242 149.784 503.746 150.088 501.746 150.088C499.81 150.088 498.418 149.824 497.57 149.296C496.722 148.768 496.298 148.016 496.298 147.04C496.298 146.368 496.474 145.84 496.826 145.456C497.178 145.088 497.658 144.816 498.266 144.64V144.376C497.53 144.024 497.162 143.448 497.162 142.648C497.162 142.024 497.362 141.552 497.762 141.232C498.162 140.896 498.674 140.648 499.298 140.488V140.392C498.562 140.04 497.986 139.536 497.57 138.88C497.17 138.224 496.97 137.464 496.97 136.6C496.97 135.976 497.082 135.4 497.306 134.872C497.53 134.344 497.842 133.896 498.242 133.528C498.658 133.144 499.146 132.848 499.706 132.64C500.282 132.432 500.922 132.328 501.626 132.328C502.506 132.328 503.29 132.488 503.978 132.808V132.592C503.978 132.112 504.09 131.72 504.314 131.416C504.538 131.096 504.906 130.936 505.418 130.936H507.266V132.616H504.914V133.408C505.362 133.792 505.706 134.256 505.946 134.8C506.202 135.328 506.33 135.928 506.33 136.6C506.33 137.224 506.218 137.8 505.994 138.328C505.77 138.856 505.45 139.312 505.034 139.696C504.634 140.064 504.146 140.352 503.57 140.56C502.994 140.768 502.354 140.872 501.65 140.872C501.25 140.872 500.85 140.832 500.45 140.752C500.034 140.864 499.658 141.032 499.322 141.256C498.986 141.464 498.818 141.76 498.818 142.144C498.818 142.512 498.994 142.76 499.346 142.888C499.698 143.016 500.154 143.08 500.714 143.08H503.354C504.89 143.08 506.002 143.376 506.69 143.968C507.394 144.544 507.746 145.344 507.746 146.368ZM505.946 146.512C505.946 146.016 505.754 145.616 505.37 145.312C505.002 145.024 504.338 144.88 503.378 144.88H499.25C498.482 145.232 498.098 145.792 498.098 146.56C498.098 147.104 498.298 147.568 498.698 147.952C499.114 148.336 499.81 148.528 500.786 148.528H502.562C503.634 148.528 504.466 148.36 505.058 148.024C505.65 147.688 505.946 147.184 505.946 146.512ZM501.65 139.336C502.466 139.336 503.114 139.144 503.594 138.76C504.074 138.36 504.314 137.752 504.314 136.936V136.264C504.314 135.448 504.074 134.848 503.594 134.464C503.114 134.064 502.466 133.864 501.65 133.864C500.834 133.864 500.186 134.064 499.706 134.464C499.226 134.848 498.986 135.448 498.986 136.264V136.936C498.986 137.752 499.226 138.36 499.706 138.76C500.186 139.144 500.834 139.336 501.65 139.336ZM526.409 145H515.417V142.936L520.889 137.896C521.673 137.176 522.329 136.416 522.857 135.616C523.385 134.8 523.649 133.984 523.649 133.168V132.88C523.649 131.952 523.393 131.2 522.881 130.624C522.369 130.048 521.593 129.76 520.553 129.76C520.041 129.76 519.593 129.832 519.209 129.976C518.825 130.12 518.489 130.32 518.201 130.576C517.929 130.832 517.697 131.136 517.505 131.488C517.329 131.824 517.185 132.192 517.073 132.592L515.273 131.896C515.433 131.4 515.649 130.92 515.921 130.456C516.209 129.976 516.561 129.552 516.977 129.184C517.409 128.816 517.921 128.52 518.513 128.296C519.121 128.072 519.833 127.96 520.649 127.96C521.465 127.96 522.193 128.08 522.833 128.32C523.473 128.56 524.009 128.896 524.441 129.328C524.873 129.76 525.201 130.272 525.425 130.864C525.665 131.456 525.785 132.112 525.785 132.832C525.785 133.488 525.689 134.096 525.497 134.656C525.321 135.216 525.073 135.752 524.753 136.264C524.433 136.76 524.041 137.248 523.577 137.728C523.129 138.208 522.641 138.688 522.113 139.168L517.601 143.224H526.409V145ZM531.272 145.288C530.76 145.288 530.384 145.16 530.144 144.904C529.92 144.648 529.808 144.312 529.808 143.896V143.584C529.808 143.168 529.92 142.832 530.144 142.576C530.384 142.32 530.76 142.192 531.272 142.192C531.784 142.192 532.152 142.32 532.376 142.576C532.616 142.832 532.736 143.168 532.736 143.584V143.896C532.736 144.312 532.616 144.648 532.376 144.904C532.152 145.16 531.784 145.288 531.272 145.288Z" fill="#E0E0E0"/>
<rect width="320" height="72" transform="translate(352 192)" fill="#121212"/>
<path d="M374.56 216.52V229H372.88V216.52H368.44V215.04H379V216.52H374.56ZM381.145 214.2H382.745V220.36H382.825C383.079 219.773 383.432 219.307 383.885 218.96C384.352 218.613 384.972 218.44 385.745 218.44C386.812 218.44 387.652 218.787 388.265 219.48C388.892 220.16 389.205 221.127 389.205 222.38V229H387.605V222.66C387.605 220.807 386.825 219.88 385.265 219.88C384.945 219.88 384.632 219.92 384.325 220C384.032 220.08 383.765 220.2 383.525 220.36C383.285 220.52 383.092 220.727 382.945 220.98C382.812 221.22 382.745 221.507 382.745 221.84V229H381.145V214.2ZM393.312 216.26C392.966 216.26 392.713 216.18 392.553 216.02C392.406 215.847 392.333 215.627 392.333 215.36V215.1C392.333 214.833 392.406 214.62 392.553 214.46C392.713 214.287 392.966 214.2 393.312 214.2C393.659 214.2 393.906 214.287 394.053 214.46C394.213 214.62 394.293 214.833 394.293 215.1V215.36C394.293 215.627 394.213 215.847 394.053 216.02C393.906 216.18 393.659 216.26 393.312 216.26ZM392.513 218.68H394.113V229H392.513V218.68ZM400.613 229.24C399.653 229.24 398.846 229.06 398.193 228.7C397.553 228.327 396.999 227.833 396.533 227.22L397.673 226.3C398.073 226.807 398.519 227.2 399.013 227.48C399.506 227.747 400.079 227.88 400.733 227.88C401.413 227.88 401.939 227.733 402.313 227.44C402.699 227.147 402.893 226.733 402.893 226.2C402.893 225.8 402.759 225.46 402.493 225.18C402.239 224.887 401.773 224.687 401.092 224.58L400.273 224.46C399.793 224.393 399.353 224.293 398.953 224.16C398.553 224.013 398.199 223.827 397.893 223.6C397.599 223.36 397.366 223.067 397.193 222.72C397.033 222.373 396.953 221.96 396.953 221.48C396.953 220.973 397.046 220.533 397.233 220.16C397.419 219.773 397.673 219.453 397.993 219.2C398.326 218.947 398.719 218.76 399.173 218.64C399.626 218.507 400.113 218.44 400.633 218.44C401.473 218.44 402.173 218.587 402.733 218.88C403.306 219.173 403.806 219.58 404.233 220.1L403.173 221.06C402.946 220.74 402.613 220.453 402.173 220.2C401.733 219.933 401.179 219.8 400.513 219.8C399.846 219.8 399.339 219.947 398.993 220.24C398.659 220.52 398.493 220.907 398.493 221.4C398.493 221.907 398.659 222.273 398.993 222.5C399.339 222.727 399.833 222.893 400.473 223L401.273 223.12C402.419 223.293 403.233 223.627 403.713 224.12C404.193 224.6 404.433 225.233 404.433 226.02C404.433 227.02 404.093 227.807 403.413 228.38C402.733 228.953 401.799 229.24 400.613 229.24ZM420.885 222.68H413.825V229H412.145V215.04H413.825V221.2H420.885V215.04H422.565V229H420.885V222.68ZM430.006 229.24C429.299 229.24 428.659 229.113 428.086 228.86C427.526 228.607 427.039 228.247 426.626 227.78C426.226 227.3 425.912 226.733 425.686 226.08C425.472 225.413 425.366 224.667 425.366 223.84C425.366 223.027 425.472 222.287 425.686 221.62C425.912 220.953 426.226 220.387 426.626 219.92C427.039 219.44 427.526 219.073 428.086 218.82C428.659 218.567 429.299 218.44 430.006 218.44C430.699 218.44 431.319 218.567 431.866 218.82C432.412 219.073 432.879 219.427 433.266 219.88C433.652 220.32 433.946 220.847 434.146 221.46C434.359 222.073 434.466 222.747 434.466 223.48V224.24H427.046V224.72C427.046 225.16 427.112 225.573 427.246 225.96C427.392 226.333 427.592 226.66 427.846 226.94C428.112 227.22 428.432 227.44 428.806 227.6C429.192 227.76 429.626 227.84 430.106 227.84C430.759 227.84 431.326 227.687 431.806 227.38C432.299 227.073 432.679 226.633 432.946 226.06L434.086 226.88C433.752 227.587 433.232 228.16 432.526 228.6C431.819 229.027 430.979 229.24 430.006 229.24ZM430.006 219.78C429.566 219.78 429.166 219.86 428.806 220.02C428.446 220.167 428.132 220.38 427.866 220.66C427.612 220.94 427.412 221.273 427.266 221.66C427.119 222.033 427.046 222.447 427.046 222.9V223.04H432.746V222.82C432.746 221.9 432.492 221.167 431.986 220.62C431.492 220.06 430.832 219.78 430.006 219.78ZM444.602 229C444.002 229 443.569 228.84 443.302 228.52C443.049 228.2 442.889 227.8 442.822 227.32H442.722C442.496 227.96 442.122 228.44 441.602 228.76C441.082 229.08 440.462 229.24 439.742 229.24C438.649 229.24 437.796 228.96 437.182 228.4C436.582 227.84 436.282 227.08 436.282 226.12C436.282 225.147 436.636 224.4 437.342 223.88C438.062 223.36 439.176 223.1 440.682 223.1H442.722V222.08C442.722 221.347 442.522 220.787 442.122 220.4C441.722 220.013 441.109 219.82 440.282 219.82C439.656 219.82 439.129 219.96 438.702 220.24C438.289 220.52 437.942 220.893 437.662 221.36L436.702 220.46C436.982 219.9 437.429 219.427 438.042 219.04C438.656 218.64 439.429 218.44 440.362 218.44C441.616 218.44 442.589 218.747 443.282 219.36C443.976 219.973 444.322 220.827 444.322 221.92V227.6H445.502V229H444.602ZM440.002 227.88C440.402 227.88 440.769 227.833 441.102 227.74C441.436 227.647 441.722 227.513 441.962 227.34C442.202 227.167 442.389 226.967 442.522 226.74C442.656 226.513 442.722 226.267 442.722 226V224.3H440.602C439.682 224.3 439.009 224.433 438.582 224.7C438.169 224.967 437.962 225.353 437.962 225.86V226.28C437.962 226.787 438.142 227.18 438.502 227.46C438.876 227.74 439.376 227.88 440.002 227.88ZM454.386 227.32H454.306C453.679 228.6 452.673 229.24 451.286 229.24C450.646 229.24 450.066 229.113 449.546 228.86C449.026 228.607 448.579 228.247 448.206 227.78C447.846 227.313 447.566 226.747 447.366 226.08C447.179 225.413 447.086 224.667 447.086 223.84C447.086 223.013 447.179 222.267 447.366 221.6C447.566 220.933 447.846 220.367 448.206 219.9C448.579 219.433 449.026 219.073 449.546 218.82C450.066 218.567 450.646 218.44 451.286 218.44C452.006 218.44 452.619 218.6 453.126 218.92C453.646 219.227 454.039 219.707 454.306 220.36H454.386V214.2H455.986V229H454.386V227.32ZM451.726 227.8C452.086 227.8 452.426 227.753 452.746 227.66C453.079 227.567 453.366 227.433 453.606 227.26C453.846 227.073 454.033 226.853 454.166 226.6C454.313 226.333 454.386 226.033 454.386 225.7V221.86C454.386 221.58 454.313 221.32 454.166 221.08C454.033 220.827 453.846 220.613 453.606 220.44C453.366 220.267 453.079 220.133 452.746 220.04C452.426 219.933 452.086 219.88 451.726 219.88C450.819 219.88 450.106 220.167 449.586 220.74C449.066 221.3 448.806 222.04 448.806 222.96V224.72C448.806 225.64 449.066 226.387 449.586 226.96C450.106 227.52 450.819 227.8 451.726 227.8ZM460.188 216.26C459.841 216.26 459.588 216.18 459.428 216.02C459.281 215.847 459.208 215.627 459.208 215.36V215.1C459.208 214.833 459.281 214.62 459.428 214.46C459.588 214.287 459.841 214.2 460.188 214.2C460.534 214.2 460.781 214.287 460.928 214.46C461.088 214.62 461.168 214.833 461.168 215.1V215.36C461.168 215.627 461.088 215.847 460.928 216.02C460.781 216.18 460.534 216.26 460.188 216.26ZM459.388 218.68H460.988V229H459.388V218.68ZM464.388 229V218.68H465.988V220.36H466.068C466.321 219.773 466.674 219.307 467.128 218.96C467.594 218.613 468.214 218.44 468.988 218.44C470.054 218.44 470.894 218.787 471.508 219.48C472.134 220.16 472.448 221.127 472.448 222.38V229H470.848V222.66C470.848 220.807 470.068 219.88 468.508 219.88C468.188 219.88 467.874 219.92 467.568 220C467.274 220.08 467.008 220.2 466.768 220.36C466.528 220.52 466.334 220.727 466.188 220.98C466.054 221.22 465.988 221.507 465.988 221.84V229H464.388ZM484.455 230.14C484.455 231.207 484.035 231.987 483.195 232.48C482.368 232.987 481.121 233.24 479.455 233.24C477.841 233.24 476.681 233.02 475.975 232.58C475.268 232.14 474.915 231.513 474.915 230.7C474.915 230.14 475.061 229.7 475.355 229.38C475.648 229.073 476.048 228.847 476.555 228.7V228.48C475.941 228.187 475.635 227.707 475.635 227.04C475.635 226.52 475.801 226.127 476.135 225.86C476.468 225.58 476.895 225.373 477.415 225.24V225.16C476.801 224.867 476.321 224.447 475.975 223.9C475.641 223.353 475.475 222.72 475.475 222C475.475 221.48 475.568 221 475.755 220.56C475.941 220.12 476.201 219.747 476.535 219.44C476.881 219.12 477.288 218.873 477.755 218.7C478.235 218.527 478.768 218.44 479.355 218.44C480.088 218.44 480.741 218.573 481.315 218.84V218.66C481.315 218.26 481.408 217.933 481.595 217.68C481.781 217.413 482.088 217.28 482.515 217.28H484.055V218.68H482.095V219.34C482.468 219.66 482.755 220.047 482.955 220.5C483.168 220.94 483.275 221.44 483.275 222C483.275 222.52 483.181 223 482.995 223.44C482.808 223.88 482.541 224.26 482.195 224.58C481.861 224.887 481.455 225.127 480.975 225.3C480.495 225.473 479.961 225.56 479.375 225.56C479.041 225.56 478.708 225.527 478.375 225.46C478.028 225.553 477.715 225.693 477.435 225.88C477.155 226.053 477.015 226.3 477.015 226.62C477.015 226.927 477.161 227.133 477.455 227.24C477.748 227.347 478.128 227.4 478.595 227.4H480.795C482.075 227.4 483.001 227.647 483.575 228.14C484.161 228.62 484.455 229.287 484.455 230.14ZM482.955 230.26C482.955 229.847 482.795 229.513 482.475 229.26C482.168 229.02 481.615 228.9 480.815 228.9H477.375C476.735 229.193 476.415 229.66 476.415 230.3C476.415 230.753 476.581 231.14 476.915 231.46C477.261 231.78 477.841 231.94 478.655 231.94H480.135C481.028 231.94 481.721 231.8 482.215 231.52C482.708 231.24 482.955 230.82 482.955 230.26ZM479.375 224.28C480.055 224.28 480.595 224.12 480.995 223.8C481.395 223.467 481.595 222.96 481.595 222.28V221.72C481.595 221.04 481.395 220.54 480.995 220.22C480.595 219.887 480.055 219.72 479.375 219.72C478.695 219.72 478.155 219.887 477.755 220.22C477.355 220.54 477.155 221.04 477.155 221.72V222.28C477.155 222.96 477.355 223.467 477.755 223.8C478.155 224.12 478.695 224.28 479.375 224.28ZM494.568 220.96C495.514 220.96 496.221 220.747 496.688 220.32C497.168 219.88 497.408 219.32 497.408 218.64V218.5C497.408 217.767 497.174 217.22 496.708 216.86C496.254 216.487 495.654 216.3 494.908 216.3C494.188 216.3 493.601 216.46 493.148 216.78C492.694 217.087 492.321 217.507 492.028 218.04L490.788 217.08C490.961 216.8 491.168 216.527 491.408 216.26C491.661 215.98 491.954 215.733 492.288 215.52C492.621 215.307 493.008 215.133 493.448 215C493.888 214.867 494.388 214.8 494.948 214.8C495.534 214.8 496.088 214.88 496.608 215.04C497.128 215.187 497.574 215.413 497.948 215.72C498.334 216.013 498.634 216.38 498.848 216.82C499.074 217.26 499.188 217.76 499.188 218.32C499.188 218.773 499.114 219.18 498.968 219.54C498.834 219.9 498.648 220.213 498.408 220.48C498.168 220.747 497.881 220.973 497.548 221.16C497.228 221.347 496.881 221.487 496.508 221.58V221.66C496.881 221.74 497.241 221.873 497.588 222.06C497.948 222.233 498.261 222.467 498.528 222.76C498.808 223.04 499.028 223.387 499.188 223.8C499.361 224.2 499.448 224.66 499.448 225.18C499.448 225.78 499.334 226.333 499.108 226.84C498.881 227.333 498.561 227.76 498.148 228.12C497.734 228.467 497.234 228.74 496.648 228.94C496.061 229.14 495.414 229.24 494.708 229.24C494.108 229.24 493.574 229.173 493.108 229.04C492.641 228.907 492.228 228.727 491.868 228.5C491.508 228.273 491.188 228.02 490.908 227.74C490.641 227.46 490.401 227.167 490.188 226.86L491.448 225.9C491.621 226.18 491.808 226.433 492.008 226.66C492.221 226.887 492.454 227.08 492.708 227.24C492.961 227.4 493.248 227.527 493.568 227.62C493.888 227.7 494.261 227.74 494.688 227.74C495.674 227.74 496.421 227.52 496.928 227.08C497.434 226.627 497.688 225.987 497.688 225.16V225C497.688 224.173 497.434 223.54 496.928 223.1C496.421 222.647 495.674 222.42 494.688 222.42H493.048V220.96H494.568ZM504.06 229.24C503.633 229.24 503.32 229.133 503.12 228.92C502.933 228.707 502.84 228.427 502.84 228.08V227.82C502.84 227.473 502.933 227.193 503.12 226.98C503.32 226.767 503.633 226.66 504.06 226.66C504.487 226.66 504.793 226.767 504.98 226.98C505.18 227.193 505.28 227.473 505.28 227.82V228.08C505.28 228.427 505.18 228.707 504.98 228.92C504.793 229.133 504.487 229.24 504.06 229.24Z" fill="#E0E0E0"/>
</svg>
