<svg width="656" height="320" viewBox="0 0 656 320" fill="none" xmlns="http://www.w3.org/2000/svg">
<rect width="320" height="320" transform="translate(336)" fill="#121212"/>
<rect x="424" y="16" width="144" height="144" rx="26" fill="#E0E0E0"/>
<rect x="352" y="176" width="288" height="112" fill="#121212"/>
<path d="M416.248 191.016V201H414.904V191.016H411.352V189.832H419.8V191.016H416.248ZM421.516 189.16H422.796V194.088H422.86C423.063 193.619 423.346 193.245 423.708 192.968C424.082 192.691 424.578 192.552 425.196 192.552C426.05 192.552 426.722 192.829 427.212 193.384C427.714 193.928 427.964 194.701 427.964 195.704V201H426.684V195.928C426.684 194.445 426.06 193.704 424.812 193.704C424.556 193.704 424.306 193.736 424.06 193.8C423.826 193.864 423.612 193.96 423.42 194.088C423.228 194.216 423.074 194.381 422.956 194.584C422.85 194.776 422.796 195.005 422.796 195.272V201H421.516V189.16ZM431.25 190.808C430.973 190.808 430.77 190.744 430.642 190.616C430.525 190.477 430.466 190.301 430.466 190.088V189.88C430.466 189.667 430.525 189.496 430.642 189.368C430.77 189.229 430.973 189.16 431.25 189.16C431.527 189.16 431.725 189.229 431.842 189.368C431.97 189.496 432.034 189.667 432.034 189.88V190.088C432.034 190.301 431.97 190.477 431.842 190.616C431.725 190.744 431.527 190.808 431.25 190.808ZM430.61 192.744H431.89V201H430.61V192.744ZM437.09 201.192C436.322 201.192 435.677 201.048 435.154 200.76C434.642 200.461 434.199 200.067 433.826 199.576L434.738 198.84C435.058 199.245 435.415 199.56 435.81 199.784C436.205 199.997 436.663 200.104 437.186 200.104C437.73 200.104 438.151 199.987 438.45 199.752C438.759 199.517 438.914 199.187 438.914 198.76C438.914 198.44 438.807 198.168 438.594 197.944C438.391 197.709 438.018 197.549 437.474 197.464L436.818 197.368C436.434 197.315 436.082 197.235 435.762 197.128C435.442 197.011 435.159 196.861 434.914 196.68C434.679 196.488 434.493 196.253 434.354 195.976C434.226 195.699 434.162 195.368 434.162 194.984C434.162 194.579 434.237 194.227 434.386 193.928C434.535 193.619 434.738 193.363 434.994 193.16C435.261 192.957 435.575 192.808 435.938 192.712C436.301 192.605 436.69 192.552 437.106 192.552C437.778 192.552 438.338 192.669 438.786 192.904C439.245 193.139 439.645 193.464 439.986 193.88L439.138 194.648C438.957 194.392 438.69 194.163 438.338 193.96C437.986 193.747 437.543 193.64 437.01 193.64C436.477 193.64 436.071 193.757 435.794 193.992C435.527 194.216 435.394 194.525 435.394 194.92C435.394 195.325 435.527 195.619 435.794 195.8C436.071 195.981 436.466 196.115 436.978 196.2L437.618 196.296C438.535 196.435 439.186 196.701 439.57 197.096C439.954 197.48 440.146 197.987 440.146 198.616C440.146 199.416 439.874 200.045 439.33 200.504C438.786 200.963 438.039 201.192 437.09 201.192ZM446.828 190.808C446.551 190.808 446.348 190.744 446.22 190.616C446.103 190.477 446.044 190.301 446.044 190.088V189.88C446.044 189.667 446.103 189.496 446.22 189.368C446.348 189.229 446.551 189.16 446.828 189.16C447.105 189.16 447.303 189.229 447.42 189.368C447.548 189.496 447.612 189.667 447.612 189.88V190.088C447.612 190.301 447.548 190.477 447.42 190.616C447.303 190.744 447.105 190.808 446.828 190.808ZM446.188 192.744H447.468V201H446.188V192.744ZM452.668 201.192C451.9 201.192 451.255 201.048 450.732 200.76C450.22 200.461 449.777 200.067 449.404 199.576L450.316 198.84C450.636 199.245 450.993 199.56 451.388 199.784C451.783 199.997 452.241 200.104 452.764 200.104C453.308 200.104 453.729 199.987 454.028 199.752C454.337 199.517 454.492 199.187 454.492 198.76C454.492 198.44 454.385 198.168 454.172 197.944C453.969 197.709 453.596 197.549 453.052 197.464L452.396 197.368C452.012 197.315 451.66 197.235 451.34 197.128C451.02 197.011 450.737 196.861 450.492 196.68C450.257 196.488 450.071 196.253 449.932 195.976C449.804 195.699 449.74 195.368 449.74 194.984C449.74 194.579 449.815 194.227 449.964 193.928C450.113 193.619 450.316 193.363 450.572 193.16C450.839 192.957 451.153 192.808 451.516 192.712C451.879 192.605 452.268 192.552 452.684 192.552C453.356 192.552 453.916 192.669 454.364 192.904C454.823 193.139 455.223 193.464 455.564 193.88L454.716 194.648C454.535 194.392 454.268 194.163 453.916 193.96C453.564 193.747 453.121 193.64 452.588 193.64C452.055 193.64 451.649 193.757 451.372 193.992C451.105 194.216 450.972 194.525 450.972 194.92C450.972 195.325 451.105 195.619 451.372 195.8C451.649 195.981 452.044 196.115 452.556 196.2L453.196 196.296C454.113 196.435 454.764 196.701 455.148 197.096C455.532 197.48 455.724 197.987 455.724 198.616C455.724 199.416 455.452 200.045 454.908 200.504C454.364 200.963 453.617 201.192 452.668 201.192ZM467.046 199.656H466.982C466.481 200.68 465.676 201.192 464.566 201.192C464.054 201.192 463.59 201.091 463.174 200.888C462.758 200.685 462.401 200.397 462.102 200.024C461.814 199.651 461.59 199.197 461.43 198.664C461.281 198.131 461.206 197.533 461.206 196.872C461.206 196.211 461.281 195.613 461.43 195.08C461.59 194.547 461.814 194.093 462.102 193.72C462.401 193.347 462.758 193.059 463.174 192.856C463.59 192.653 464.054 192.552 464.566 192.552C465.142 192.552 465.633 192.68 466.038 192.936C466.454 193.181 466.769 193.565 466.982 194.088H467.046V189.16H468.326V201H467.046V199.656ZM464.918 200.04C465.206 200.04 465.478 200.003 465.734 199.928C466.001 199.853 466.23 199.747 466.422 199.608C466.614 199.459 466.764 199.283 466.87 199.08C466.988 198.867 467.046 198.627 467.046 198.36V195.288C467.046 195.064 466.988 194.856 466.87 194.664C466.764 194.461 466.614 194.291 466.422 194.152C466.23 194.013 466.001 193.907 465.734 193.832C465.478 193.747 465.206 193.704 464.918 193.704C464.193 193.704 463.622 193.933 463.206 194.392C462.79 194.84 462.582 195.432 462.582 196.168V197.576C462.582 198.312 462.79 198.909 463.206 199.368C463.622 199.816 464.193 200.04 464.918 200.04ZM474.152 201.192C473.586 201.192 473.074 201.091 472.616 200.888C472.168 200.685 471.778 200.397 471.448 200.024C471.128 199.64 470.877 199.187 470.696 198.664C470.525 198.131 470.44 197.533 470.44 196.872C470.44 196.221 470.525 195.629 470.696 195.096C470.877 194.563 471.128 194.109 471.448 193.736C471.778 193.352 472.168 193.059 472.616 192.856C473.074 192.653 473.586 192.552 474.152 192.552C474.706 192.552 475.202 192.653 475.64 192.856C476.077 193.059 476.45 193.341 476.76 193.704C477.069 194.056 477.304 194.477 477.464 194.968C477.634 195.459 477.72 195.997 477.72 196.584V197.192H471.784V197.576C471.784 197.928 471.837 198.259 471.944 198.568C472.061 198.867 472.221 199.128 472.424 199.352C472.637 199.576 472.893 199.752 473.192 199.88C473.501 200.008 473.848 200.072 474.232 200.072C474.754 200.072 475.208 199.949 475.592 199.704C475.986 199.459 476.29 199.107 476.504 198.648L477.416 199.304C477.149 199.869 476.733 200.328 476.168 200.68C475.602 201.021 474.93 201.192 474.152 201.192ZM474.152 193.624C473.8 193.624 473.48 193.688 473.192 193.816C472.904 193.933 472.653 194.104 472.44 194.328C472.237 194.552 472.077 194.819 471.96 195.128C471.842 195.427 471.784 195.757 471.784 196.12V196.232H476.344V196.056C476.344 195.32 476.141 194.733 475.736 194.296C475.341 193.848 474.813 193.624 474.152 193.624ZM482.309 201.192C481.541 201.192 480.895 201.048 480.373 200.76C479.861 200.461 479.418 200.067 479.045 199.576L479.957 198.84C480.277 199.245 480.634 199.56 481.029 199.784C481.423 199.997 481.882 200.104 482.405 200.104C482.949 200.104 483.37 199.987 483.669 199.752C483.978 199.517 484.133 199.187 484.133 198.76C484.133 198.44 484.026 198.168 483.813 197.944C483.61 197.709 483.237 197.549 482.693 197.464L482.037 197.368C481.653 197.315 481.301 197.235 480.981 197.128C480.661 197.011 480.378 196.861 480.133 196.68C479.898 196.488 479.711 196.253 479.573 195.976C479.445 195.699 479.381 195.368 479.381 194.984C479.381 194.579 479.455 194.227 479.605 193.928C479.754 193.619 479.957 193.363 480.213 193.16C480.479 192.957 480.794 192.808 481.157 192.712C481.519 192.605 481.909 192.552 482.325 192.552C482.997 192.552 483.557 192.669 484.005 192.904C484.463 193.139 484.863 193.464 485.205 193.88L484.357 194.648C484.175 194.392 483.909 194.163 483.557 193.96C483.205 193.747 482.762 193.64 482.229 193.64C481.695 193.64 481.29 193.757 481.013 193.992C480.746 194.216 480.613 194.525 480.613 194.92C480.613 195.325 480.746 195.619 481.013 195.8C481.29 195.981 481.685 196.115 482.197 196.2L482.837 196.296C483.754 196.435 484.405 196.701 484.789 197.096C485.173 197.48 485.365 197.987 485.365 198.616C485.365 199.416 485.093 200.045 484.549 200.504C484.005 200.963 483.258 201.192 482.309 201.192ZM490.698 201.192C490.122 201.192 489.604 201.091 489.146 200.888C488.687 200.685 488.298 200.397 487.978 200.024C487.668 199.651 487.428 199.197 487.258 198.664C487.098 198.131 487.018 197.533 487.018 196.872C487.018 196.211 487.098 195.613 487.258 195.08C487.428 194.547 487.668 194.093 487.978 193.72C488.298 193.347 488.687 193.059 489.146 192.856C489.604 192.653 490.122 192.552 490.698 192.552C491.519 192.552 492.175 192.733 492.666 193.096C493.167 193.448 493.54 193.912 493.786 194.488L492.714 195.032C492.564 194.605 492.319 194.275 491.978 194.04C491.636 193.805 491.21 193.688 490.698 193.688C490.314 193.688 489.978 193.752 489.69 193.88C489.402 193.997 489.162 194.168 488.97 194.392C488.778 194.605 488.634 194.867 488.538 195.176C488.442 195.475 488.394 195.805 488.394 196.168V197.576C488.394 198.301 488.586 198.899 488.97 199.368C489.364 199.827 489.94 200.056 490.698 200.056C491.732 200.056 492.479 199.576 492.938 198.616L493.866 199.24C493.599 199.837 493.199 200.312 492.666 200.664C492.143 201.016 491.487 201.192 490.698 201.192ZM495.673 201V192.744H496.953V194.264H497.033C497.182 193.869 497.449 193.517 497.833 193.208C498.217 192.899 498.745 192.744 499.417 192.744H499.913V194.024H499.161C498.467 194.024 497.923 194.157 497.529 194.424C497.145 194.68 496.953 195.005 496.953 195.4V201H495.673ZM502.188 190.808C501.91 190.808 501.708 190.744 501.58 190.616C501.462 190.477 501.404 190.301 501.404 190.088V189.88C501.404 189.667 501.462 189.496 501.58 189.368C501.708 189.229 501.91 189.16 502.188 189.16C502.465 189.16 502.662 189.229 502.78 189.368C502.908 189.496 502.972 189.667 502.972 189.88V190.088C502.972 190.301 502.908 190.477 502.78 190.616C502.662 190.744 502.465 190.808 502.188 190.808ZM501.548 192.744H502.828V201H501.548V192.744ZM505.548 192.744H506.828V194.088H506.892C507.105 193.565 507.414 193.181 507.82 192.936C508.236 192.68 508.732 192.552 509.308 192.552C509.82 192.552 510.284 192.653 510.7 192.856C511.116 193.059 511.468 193.347 511.756 193.72C512.054 194.093 512.278 194.547 512.428 195.08C512.588 195.613 512.668 196.211 512.668 196.872C512.668 197.533 512.588 198.131 512.428 198.664C512.278 199.197 512.054 199.651 511.756 200.024C511.468 200.397 511.116 200.685 510.7 200.888C510.284 201.091 509.82 201.192 509.308 201.192C508.188 201.192 507.382 200.68 506.892 199.656H506.828V204.2H505.548V192.744ZM508.956 200.04C509.681 200.04 510.252 199.816 510.668 199.368C511.084 198.909 511.292 198.312 511.292 197.576V196.168C511.292 195.432 511.084 194.84 510.668 194.392C510.252 193.933 509.681 193.704 508.956 193.704C508.668 193.704 508.39 193.747 508.124 193.832C507.868 193.907 507.644 194.013 507.452 194.152C507.26 194.291 507.105 194.461 506.988 194.664C506.881 194.856 506.828 195.064 506.828 195.288V198.36C506.828 198.627 506.881 198.867 506.988 199.08C507.105 199.283 507.26 199.459 507.452 199.608C507.644 199.747 507.868 199.853 508.124 199.928C508.39 200.003 508.668 200.04 508.956 200.04ZM516.559 201C516.111 201 515.77 200.877 515.535 200.632C515.311 200.376 515.199 200.045 515.199 199.64V193.864H513.839V192.744H514.607C514.884 192.744 515.071 192.691 515.167 192.584C515.274 192.467 515.327 192.269 515.327 191.992V190.456H516.479V192.744H518.287V193.864H516.479V199.88H518.159V201H516.559ZM520.984 190.808C520.707 190.808 520.504 190.744 520.376 190.616C520.259 190.477 520.2 190.301 520.2 190.088V189.88C520.2 189.667 520.259 189.496 520.376 189.368C520.504 189.229 520.707 189.16 520.984 189.16C521.262 189.16 521.459 189.229 521.576 189.368C521.704 189.496 521.768 189.667 521.768 189.88V190.088C521.768 190.301 521.704 190.477 521.576 190.616C521.459 190.744 521.262 190.808 520.984 190.808ZM520.344 192.744H521.624V201H520.344V192.744ZM527.464 201.192C526.91 201.192 526.403 201.091 525.944 200.888C525.486 200.685 525.091 200.397 524.76 200.024C524.44 199.64 524.19 199.187 524.008 198.664C523.827 198.131 523.736 197.533 523.736 196.872C523.736 196.221 523.827 195.629 524.008 195.096C524.19 194.563 524.44 194.109 524.76 193.736C525.091 193.352 525.486 193.059 525.944 192.856C526.403 192.653 526.91 192.552 527.464 192.552C528.019 192.552 528.52 192.653 528.968 192.856C529.427 193.059 529.822 193.352 530.152 193.736C530.483 194.109 530.739 194.563 530.92 195.096C531.102 195.629 531.192 196.221 531.192 196.872C531.192 197.533 531.102 198.131 530.92 198.664C530.739 199.187 530.483 199.64 530.152 200.024C529.822 200.397 529.427 200.685 528.968 200.888C528.52 201.091 528.019 201.192 527.464 201.192ZM527.464 200.056C528.158 200.056 528.723 199.843 529.16 199.416C529.598 198.989 529.816 198.339 529.816 197.464V196.28C529.816 195.405 529.598 194.755 529.16 194.328C528.723 193.901 528.158 193.688 527.464 193.688C526.771 193.688 526.206 193.901 525.768 194.328C525.331 194.755 525.112 195.405 525.112 196.28V197.464C525.112 198.339 525.331 198.989 525.768 199.416C526.206 199.843 526.771 200.056 527.464 200.056ZM533.298 201V192.744H534.578V194.088H534.642C534.844 193.619 535.127 193.245 535.49 192.968C535.863 192.691 536.359 192.552 536.978 192.552C537.831 192.552 538.503 192.829 538.994 193.384C539.495 193.928 539.746 194.701 539.746 195.704V201H538.466V195.928C538.466 194.445 537.842 193.704 536.594 193.704C536.338 193.704 536.087 193.736 535.842 193.8C535.607 193.864 535.394 193.96 535.202 194.088C535.01 194.216 534.855 194.381 534.738 194.584C534.631 194.776 534.578 195.005 534.578 195.272V201H533.298ZM552.173 201C551.693 201 551.346 200.872 551.133 200.616C550.93 200.36 550.802 200.04 550.749 199.656H550.669C550.487 200.168 550.189 200.552 549.773 200.808C549.357 201.064 548.861 201.192 548.285 201.192C547.41 201.192 546.727 200.968 546.237 200.52C545.757 200.072 545.517 199.464 545.517 198.696C545.517 197.917 545.799 197.32 546.365 196.904C546.941 196.488 547.831 196.28 549.036 196.28H550.669V195.464C550.669 194.877 550.509 194.429 550.189 194.12C549.869 193.811 549.378 193.656 548.717 193.656C548.215 193.656 547.794 193.768 547.453 193.992C547.122 194.216 546.845 194.515 546.621 194.888L545.853 194.168C546.077 193.72 546.434 193.341 546.924 193.032C547.415 192.712 548.034 192.552 548.781 192.552C549.783 192.552 550.562 192.797 551.117 193.288C551.671 193.779 551.949 194.461 551.949 195.336V199.88H552.892V201H552.173ZM548.493 200.104C548.813 200.104 549.106 200.067 549.373 199.992C549.639 199.917 549.869 199.811 550.061 199.672C550.253 199.533 550.402 199.373 550.509 199.192C550.615 199.011 550.669 198.813 550.669 198.6V197.24H548.973C548.237 197.24 547.698 197.347 547.357 197.56C547.026 197.773 546.861 198.083 546.861 198.488V198.824C546.861 199.229 547.005 199.544 547.293 199.768C547.591 199.992 547.991 200.104 548.493 200.104ZM554.719 201V192.744H555.999V194.264H556.079C556.229 193.869 556.495 193.517 556.879 193.208C557.263 192.899 557.791 192.744 558.463 192.744H558.959V194.024H558.207C557.514 194.024 556.97 194.157 556.575 194.424C556.191 194.68 555.999 195.005 555.999 195.4V201H554.719ZM563.62 201.192C563.055 201.192 562.543 201.091 562.084 200.888C561.636 200.685 561.247 200.397 560.916 200.024C560.596 199.64 560.346 199.187 560.164 198.664C559.994 198.131 559.908 197.533 559.908 196.872C559.908 196.221 559.994 195.629 560.164 195.096C560.346 194.563 560.596 194.109 560.916 193.736C561.247 193.352 561.636 193.059 562.084 192.856C562.543 192.653 563.055 192.552 563.62 192.552C564.175 192.552 564.671 192.653 565.108 192.856C565.546 193.059 565.919 193.341 566.228 193.704C566.538 194.056 566.772 194.477 566.932 194.968C567.103 195.459 567.188 195.997 567.188 196.584V197.192H561.252V197.576C561.252 197.928 561.306 198.259 561.412 198.568C561.53 198.867 561.69 199.128 561.892 199.352C562.106 199.576 562.362 199.752 562.66 199.88C562.97 200.008 563.316 200.072 563.7 200.072C564.223 200.072 564.676 199.949 565.06 199.704C565.455 199.459 565.759 199.107 565.972 198.648L566.884 199.304C566.618 199.869 566.202 200.328 565.636 200.68C565.071 201.021 564.399 201.192 563.62 201.192ZM563.62 193.624C563.268 193.624 562.948 193.688 562.66 193.816C562.372 193.933 562.122 194.104 561.908 194.328C561.706 194.552 561.546 194.819 561.428 195.128C561.311 195.427 561.252 195.757 561.252 196.12V196.232H565.812V196.056C565.812 195.32 565.61 194.733 565.204 194.296C564.81 193.848 564.282 193.624 563.62 193.624ZM575.298 201C574.818 201 574.471 200.872 574.258 200.616C574.055 200.36 573.927 200.04 573.874 199.656H573.794C573.612 200.168 573.314 200.552 572.898 200.808C572.482 201.064 571.986 201.192 571.41 201.192C570.535 201.192 569.852 200.968 569.362 200.52C568.882 200.072 568.642 199.464 568.642 198.696C568.642 197.917 568.924 197.32 569.49 196.904C570.066 196.488 570.956 196.28 572.161 196.28H573.794V195.464C573.794 194.877 573.634 194.429 573.314 194.12C572.994 193.811 572.503 193.656 571.842 193.656C571.34 193.656 570.919 193.768 570.578 193.992C570.247 194.216 569.97 194.515 569.746 194.888L568.978 194.168C569.202 193.72 569.559 193.341 570.049 193.032C570.54 192.712 571.159 192.552 571.906 192.552C572.908 192.552 573.687 192.797 574.242 193.288C574.796 193.779 575.074 194.461 575.074 195.336V199.88H576.017V201H575.298ZM571.618 200.104C571.938 200.104 572.231 200.067 572.498 199.992C572.764 199.917 572.994 199.811 573.186 199.672C573.378 199.533 573.527 199.373 573.634 199.192C573.74 199.011 573.794 198.813 573.794 198.6V197.24H572.098C571.362 197.24 570.823 197.347 570.482 197.56C570.151 197.773 569.986 198.083 569.986 198.488V198.824C569.986 199.229 570.13 199.544 570.418 199.768C570.716 199.992 571.116 200.104 571.618 200.104ZM578.817 201.192C578.475 201.192 578.225 201.107 578.065 200.936C577.915 200.765 577.841 200.541 577.841 200.264V200.056C577.841 199.779 577.915 199.555 578.065 199.384C578.225 199.213 578.475 199.128 578.817 199.128C579.158 199.128 579.403 199.213 579.553 199.384C579.713 199.555 579.793 199.779 579.793 200.056V200.264C579.793 200.541 579.713 200.765 579.553 200.936C579.403 201.107 579.158 201.192 578.817 201.192Z" fill="#E0E0E0"/>
<rect width="320" height="320" fill="#F0F0F0"/>
<rect x="88" y="16" width="144" height="144" rx="26" fill="black"/>
<rect x="16" y="176" width="288" height="112" fill="#F0F0F0"/>
<path d="M80.248 191.016V201H78.904V191.016H75.352V189.832H83.8V191.016H80.248ZM85.5163 189.16H86.7963V194.088H86.8603C87.0629 193.619 87.3456 193.245 87.7083 192.968C88.0816 192.691 88.5776 192.552 89.1963 192.552C90.0496 192.552 90.7216 192.829 91.2123 193.384C91.7136 193.928 91.9643 194.701 91.9643 195.704V201H90.6843V195.928C90.6843 194.445 90.0603 193.704 88.8123 193.704C88.5563 193.704 88.3056 193.736 88.0603 193.8C87.8256 193.864 87.6123 193.96 87.4203 194.088C87.2283 194.216 87.0736 194.381 86.9563 194.584C86.8496 194.776 86.7963 195.005 86.7963 195.272V201H85.5163V189.16ZM95.25 190.808C94.9727 190.808 94.77 190.744 94.642 190.616C94.5247 190.477 94.466 190.301 94.466 190.088V189.88C94.466 189.667 94.5247 189.496 94.642 189.368C94.77 189.229 94.9727 189.16 95.25 189.16C95.5273 189.16 95.7247 189.229 95.842 189.368C95.97 189.496 96.034 189.667 96.034 189.88V190.088C96.034 190.301 95.97 190.477 95.842 190.616C95.7247 190.744 95.5273 190.808 95.25 190.808ZM94.61 192.744H95.89V201H94.61V192.744ZM101.09 201.192C100.322 201.192 99.6767 201.048 99.154 200.76C98.642 200.461 98.1993 200.067 97.826 199.576L98.738 198.84C99.058 199.245 99.4153 199.56 99.81 199.784C100.205 199.997 100.663 200.104 101.186 200.104C101.73 200.104 102.151 199.987 102.45 199.752C102.759 199.517 102.914 199.187 102.914 198.76C102.914 198.44 102.807 198.168 102.594 197.944C102.391 197.709 102.018 197.549 101.474 197.464L100.818 197.368C100.434 197.315 100.082 197.235 99.762 197.128C99.442 197.011 99.1593 196.861 98.914 196.68C98.6793 196.488 98.4927 196.253 98.354 195.976C98.226 195.699 98.162 195.368 98.162 194.984C98.162 194.579 98.2367 194.227 98.386 193.928C98.5353 193.619 98.738 193.363 98.994 193.16C99.2607 192.957 99.5753 192.808 99.938 192.712C100.301 192.605 100.69 192.552 101.106 192.552C101.778 192.552 102.338 192.669 102.786 192.904C103.245 193.139 103.645 193.464 103.986 193.88L103.138 194.648C102.957 194.392 102.69 194.163 102.338 193.96C101.986 193.747 101.543 193.64 101.01 193.64C100.477 193.64 100.071 193.757 99.794 193.992C99.5273 194.216 99.394 194.525 99.394 194.92C99.394 195.325 99.5273 195.619 99.794 195.8C100.071 195.981 100.466 196.115 100.978 196.2L101.618 196.296C102.535 196.435 103.186 196.701 103.57 197.096C103.954 197.48 104.146 197.987 104.146 198.616C104.146 199.416 103.874 200.045 103.33 200.504C102.786 200.963 102.039 201.192 101.09 201.192ZM110.828 190.808C110.551 190.808 110.348 190.744 110.22 190.616C110.103 190.477 110.044 190.301 110.044 190.088V189.88C110.044 189.667 110.103 189.496 110.22 189.368C110.348 189.229 110.551 189.16 110.828 189.16C111.105 189.16 111.303 189.229 111.42 189.368C111.548 189.496 111.612 189.667 111.612 189.88V190.088C111.612 190.301 111.548 190.477 111.42 190.616C111.303 190.744 111.105 190.808 110.828 190.808ZM110.188 192.744H111.468V201H110.188V192.744ZM116.668 201.192C115.9 201.192 115.255 201.048 114.732 200.76C114.22 200.461 113.777 200.067 113.404 199.576L114.316 198.84C114.636 199.245 114.993 199.56 115.388 199.784C115.783 199.997 116.241 200.104 116.764 200.104C117.308 200.104 117.729 199.987 118.028 199.752C118.337 199.517 118.492 199.187 118.492 198.76C118.492 198.44 118.385 198.168 118.172 197.944C117.969 197.709 117.596 197.549 117.052 197.464L116.396 197.368C116.012 197.315 115.66 197.235 115.34 197.128C115.02 197.011 114.737 196.861 114.492 196.68C114.257 196.488 114.071 196.253 113.932 195.976C113.804 195.699 113.74 195.368 113.74 194.984C113.74 194.579 113.815 194.227 113.964 193.928C114.113 193.619 114.316 193.363 114.572 193.16C114.839 192.957 115.153 192.808 115.516 192.712C115.879 192.605 116.268 192.552 116.684 192.552C117.356 192.552 117.916 192.669 118.364 192.904C118.823 193.139 119.223 193.464 119.564 193.88L118.716 194.648C118.535 194.392 118.268 194.163 117.916 193.96C117.564 193.747 117.121 193.64 116.588 193.64C116.055 193.64 115.649 193.757 115.372 193.992C115.105 194.216 114.972 194.525 114.972 194.92C114.972 195.325 115.105 195.619 115.372 195.8C115.649 195.981 116.044 196.115 116.556 196.2L117.196 196.296C118.113 196.435 118.764 196.701 119.148 197.096C119.532 197.48 119.724 197.987 119.724 198.616C119.724 199.416 119.452 200.045 118.908 200.504C118.364 200.963 117.617 201.192 116.668 201.192ZM131.046 199.656H130.982C130.481 200.68 129.676 201.192 128.566 201.192C128.054 201.192 127.59 201.091 127.174 200.888C126.758 200.685 126.401 200.397 126.102 200.024C125.814 199.651 125.59 199.197 125.43 198.664C125.281 198.131 125.206 197.533 125.206 196.872C125.206 196.211 125.281 195.613 125.43 195.08C125.59 194.547 125.814 194.093 126.102 193.72C126.401 193.347 126.758 193.059 127.174 192.856C127.59 192.653 128.054 192.552 128.566 192.552C129.142 192.552 129.633 192.68 130.038 192.936C130.454 193.181 130.769 193.565 130.982 194.088H131.046V189.16H132.326V201H131.046V199.656ZM128.918 200.04C129.206 200.04 129.478 200.003 129.734 199.928C130.001 199.853 130.23 199.747 130.422 199.608C130.614 199.459 130.764 199.283 130.87 199.08C130.988 198.867 131.046 198.627 131.046 198.36V195.288C131.046 195.064 130.988 194.856 130.87 194.664C130.764 194.461 130.614 194.291 130.422 194.152C130.23 194.013 130.001 193.907 129.734 193.832C129.478 193.747 129.206 193.704 128.918 193.704C128.193 193.704 127.622 193.933 127.206 194.392C126.79 194.84 126.582 195.432 126.582 196.168V197.576C126.582 198.312 126.79 198.909 127.206 199.368C127.622 199.816 128.193 200.04 128.918 200.04ZM138.152 201.192C137.586 201.192 137.074 201.091 136.616 200.888C136.168 200.685 135.778 200.397 135.448 200.024C135.128 199.64 134.877 199.187 134.696 198.664C134.525 198.131 134.44 197.533 134.44 196.872C134.44 196.221 134.525 195.629 134.696 195.096C134.877 194.563 135.128 194.109 135.448 193.736C135.778 193.352 136.168 193.059 136.616 192.856C137.074 192.653 137.586 192.552 138.152 192.552C138.706 192.552 139.202 192.653 139.64 192.856C140.077 193.059 140.45 193.341 140.76 193.704C141.069 194.056 141.304 194.477 141.464 194.968C141.634 195.459 141.72 195.997 141.72 196.584V197.192H135.784V197.576C135.784 197.928 135.837 198.259 135.944 198.568C136.061 198.867 136.221 199.128 136.424 199.352C136.637 199.576 136.893 199.752 137.192 199.88C137.501 200.008 137.848 200.072 138.232 200.072C138.754 200.072 139.208 199.949 139.592 199.704C139.986 199.459 140.29 199.107 140.504 198.648L141.416 199.304C141.149 199.869 140.733 200.328 140.168 200.68C139.602 201.021 138.93 201.192 138.152 201.192ZM138.152 193.624C137.8 193.624 137.48 193.688 137.192 193.816C136.904 193.933 136.653 194.104 136.44 194.328C136.237 194.552 136.077 194.819 135.96 195.128C135.842 195.427 135.784 195.757 135.784 196.12V196.232H140.344V196.056C140.344 195.32 140.141 194.733 139.736 194.296C139.341 193.848 138.813 193.624 138.152 193.624ZM146.309 201.192C145.541 201.192 144.895 201.048 144.373 200.76C143.861 200.461 143.418 200.067 143.045 199.576L143.957 198.84C144.277 199.245 144.634 199.56 145.029 199.784C145.423 199.997 145.882 200.104 146.405 200.104C146.949 200.104 147.37 199.987 147.669 199.752C147.978 199.517 148.133 199.187 148.133 198.76C148.133 198.44 148.026 198.168 147.813 197.944C147.61 197.709 147.237 197.549 146.693 197.464L146.037 197.368C145.653 197.315 145.301 197.235 144.981 197.128C144.661 197.011 144.378 196.861 144.133 196.68C143.898 196.488 143.711 196.253 143.573 195.976C143.445 195.699 143.381 195.368 143.381 194.984C143.381 194.579 143.455 194.227 143.605 193.928C143.754 193.619 143.957 193.363 144.213 193.16C144.479 192.957 144.794 192.808 145.157 192.712C145.519 192.605 145.909 192.552 146.325 192.552C146.997 192.552 147.557 192.669 148.005 192.904C148.463 193.139 148.863 193.464 149.205 193.88L148.357 194.648C148.175 194.392 147.909 194.163 147.557 193.96C147.205 193.747 146.762 193.64 146.229 193.64C145.695 193.64 145.29 193.757 145.013 193.992C144.746 194.216 144.613 194.525 144.613 194.92C144.613 195.325 144.746 195.619 145.013 195.8C145.29 195.981 145.685 196.115 146.197 196.2L146.837 196.296C147.754 196.435 148.405 196.701 148.789 197.096C149.173 197.48 149.365 197.987 149.365 198.616C149.365 199.416 149.093 200.045 148.549 200.504C148.005 200.963 147.258 201.192 146.309 201.192ZM154.698 201.192C154.122 201.192 153.604 201.091 153.146 200.888C152.687 200.685 152.298 200.397 151.978 200.024C151.668 199.651 151.428 199.197 151.258 198.664C151.098 198.131 151.018 197.533 151.018 196.872C151.018 196.211 151.098 195.613 151.258 195.08C151.428 194.547 151.668 194.093 151.978 193.72C152.298 193.347 152.687 193.059 153.146 192.856C153.604 192.653 154.122 192.552 154.698 192.552C155.519 192.552 156.175 192.733 156.666 193.096C157.167 193.448 157.54 193.912 157.786 194.488L156.714 195.032C156.564 194.605 156.319 194.275 155.978 194.04C155.636 193.805 155.21 193.688 154.698 193.688C154.314 193.688 153.978 193.752 153.69 193.88C153.402 193.997 153.162 194.168 152.97 194.392C152.778 194.605 152.634 194.867 152.538 195.176C152.442 195.475 152.394 195.805 152.394 196.168V197.576C152.394 198.301 152.586 198.899 152.97 199.368C153.364 199.827 153.94 200.056 154.698 200.056C155.732 200.056 156.479 199.576 156.938 198.616L157.866 199.24C157.599 199.837 157.199 200.312 156.666 200.664C156.143 201.016 155.487 201.192 154.698 201.192ZM159.673 201V192.744H160.953V194.264H161.033C161.182 193.869 161.449 193.517 161.833 193.208C162.217 192.899 162.745 192.744 163.417 192.744H163.913V194.024H163.161C162.467 194.024 161.923 194.157 161.529 194.424C161.145 194.68 160.953 195.005 160.953 195.4V201H159.673ZM166.188 190.808C165.91 190.808 165.708 190.744 165.58 190.616C165.462 190.477 165.404 190.301 165.404 190.088V189.88C165.404 189.667 165.462 189.496 165.58 189.368C165.708 189.229 165.91 189.16 166.188 189.16C166.465 189.16 166.662 189.229 166.78 189.368C166.908 189.496 166.972 189.667 166.972 189.88V190.088C166.972 190.301 166.908 190.477 166.78 190.616C166.662 190.744 166.465 190.808 166.188 190.808ZM165.548 192.744H166.828V201H165.548V192.744ZM169.548 192.744H170.828V194.088H170.892C171.105 193.565 171.414 193.181 171.82 192.936C172.236 192.68 172.732 192.552 173.308 192.552C173.82 192.552 174.284 192.653 174.7 192.856C175.116 193.059 175.468 193.347 175.756 193.72C176.054 194.093 176.278 194.547 176.428 195.08C176.588 195.613 176.668 196.211 176.668 196.872C176.668 197.533 176.588 198.131 176.428 198.664C176.278 199.197 176.054 199.651 175.756 200.024C175.468 200.397 175.116 200.685 174.7 200.888C174.284 201.091 173.82 201.192 173.308 201.192C172.188 201.192 171.382 200.68 170.892 199.656H170.828V204.2H169.548V192.744ZM172.956 200.04C173.681 200.04 174.252 199.816 174.668 199.368C175.084 198.909 175.292 198.312 175.292 197.576V196.168C175.292 195.432 175.084 194.84 174.668 194.392C174.252 193.933 173.681 193.704 172.956 193.704C172.668 193.704 172.39 193.747 172.124 193.832C171.868 193.907 171.644 194.013 171.452 194.152C171.26 194.291 171.105 194.461 170.988 194.664C170.881 194.856 170.828 195.064 170.828 195.288V198.36C170.828 198.627 170.881 198.867 170.988 199.08C171.105 199.283 171.26 199.459 171.452 199.608C171.644 199.747 171.868 199.853 172.124 199.928C172.39 200.003 172.668 200.04 172.956 200.04ZM180.559 201C180.111 201 179.77 200.877 179.535 200.632C179.311 200.376 179.199 200.045 179.199 199.64V193.864H177.839V192.744H178.607C178.884 192.744 179.071 192.691 179.167 192.584C179.274 192.467 179.327 192.269 179.327 191.992V190.456H180.479V192.744H182.287V193.864H180.479V199.88H182.159V201H180.559ZM184.984 190.808C184.707 190.808 184.504 190.744 184.376 190.616C184.259 190.477 184.2 190.301 184.2 190.088V189.88C184.2 189.667 184.259 189.496 184.376 189.368C184.504 189.229 184.707 189.16 184.984 189.16C185.262 189.16 185.459 189.229 185.576 189.368C185.704 189.496 185.768 189.667 185.768 189.88V190.088C185.768 190.301 185.704 190.477 185.576 190.616C185.459 190.744 185.262 190.808 184.984 190.808ZM184.344 192.744H185.624V201H184.344V192.744ZM191.464 201.192C190.91 201.192 190.403 201.091 189.944 200.888C189.486 200.685 189.091 200.397 188.76 200.024C188.44 199.64 188.19 199.187 188.008 198.664C187.827 198.131 187.736 197.533 187.736 196.872C187.736 196.221 187.827 195.629 188.008 195.096C188.19 194.563 188.44 194.109 188.76 193.736C189.091 193.352 189.486 193.059 189.944 192.856C190.403 192.653 190.91 192.552 191.464 192.552C192.019 192.552 192.52 192.653 192.968 192.856C193.427 193.059 193.822 193.352 194.152 193.736C194.483 194.109 194.739 194.563 194.92 195.096C195.102 195.629 195.192 196.221 195.192 196.872C195.192 197.533 195.102 198.131 194.92 198.664C194.739 199.187 194.483 199.64 194.152 200.024C193.822 200.397 193.427 200.685 192.968 200.888C192.52 201.091 192.019 201.192 191.464 201.192ZM191.464 200.056C192.158 200.056 192.723 199.843 193.16 199.416C193.598 198.989 193.816 198.339 193.816 197.464V196.28C193.816 195.405 193.598 194.755 193.16 194.328C192.723 193.901 192.158 193.688 191.464 193.688C190.771 193.688 190.206 193.901 189.768 194.328C189.331 194.755 189.112 195.405 189.112 196.28V197.464C189.112 198.339 189.331 198.989 189.768 199.416C190.206 199.843 190.771 200.056 191.464 200.056ZM197.298 201V192.744H198.578V194.088H198.642C198.844 193.619 199.127 193.245 199.49 192.968C199.863 192.691 200.359 192.552 200.978 192.552C201.831 192.552 202.503 192.829 202.994 193.384C203.495 193.928 203.746 194.701 203.746 195.704V201H202.466V195.928C202.466 194.445 201.842 193.704 200.594 193.704C200.338 193.704 200.087 193.736 199.842 193.8C199.607 193.864 199.394 193.96 199.202 194.088C199.01 194.216 198.855 194.381 198.738 194.584C198.631 194.776 198.578 195.005 198.578 195.272V201H197.298ZM216.173 201C215.693 201 215.346 200.872 215.133 200.616C214.93 200.36 214.802 200.04 214.749 199.656H214.669C214.487 200.168 214.189 200.552 213.773 200.808C213.357 201.064 212.861 201.192 212.285 201.192C211.41 201.192 210.727 200.968 210.237 200.52C209.757 200.072 209.517 199.464 209.517 198.696C209.517 197.917 209.799 197.32 210.365 196.904C210.941 196.488 211.831 196.28 213.036 196.28H214.669V195.464C214.669 194.877 214.509 194.429 214.189 194.12C213.869 193.811 213.378 193.656 212.717 193.656C212.215 193.656 211.794 193.768 211.453 193.992C211.122 194.216 210.845 194.515 210.621 194.888L209.853 194.168C210.077 193.72 210.434 193.341 210.924 193.032C211.415 192.712 212.034 192.552 212.781 192.552C213.783 192.552 214.562 192.797 215.117 193.288C215.671 193.779 215.949 194.461 215.949 195.336V199.88H216.892V201H216.173ZM212.493 200.104C212.813 200.104 213.106 200.067 213.373 199.992C213.639 199.917 213.869 199.811 214.061 199.672C214.253 199.533 214.402 199.373 214.509 199.192C214.615 199.011 214.669 198.813 214.669 198.6V197.24H212.973C212.237 197.24 211.698 197.347 211.357 197.56C211.026 197.773 210.861 198.083 210.861 198.488V198.824C210.861 199.229 211.005 199.544 211.293 199.768C211.591 199.992 211.991 200.104 212.493 200.104ZM218.719 201V192.744H219.999V194.264H220.079C220.229 193.869 220.495 193.517 220.879 193.208C221.263 192.899 221.791 192.744 222.463 192.744H222.959V194.024H222.207C221.514 194.024 220.97 194.157 220.575 194.424C220.191 194.68 219.999 195.005 219.999 195.4V201H218.719ZM227.62 201.192C227.055 201.192 226.543 201.091 226.084 200.888C225.636 200.685 225.247 200.397 224.916 200.024C224.596 199.64 224.346 199.187 224.164 198.664C223.994 198.131 223.908 197.533 223.908 196.872C223.908 196.221 223.994 195.629 224.164 195.096C224.346 194.563 224.596 194.109 224.916 193.736C225.247 193.352 225.636 193.059 226.084 192.856C226.543 192.653 227.055 192.552 227.62 192.552C228.175 192.552 228.671 192.653 229.108 192.856C229.546 193.059 229.919 193.341 230.228 193.704C230.538 194.056 230.772 194.477 230.932 194.968C231.103 195.459 231.188 195.997 231.188 196.584V197.192H225.252V197.576C225.252 197.928 225.306 198.259 225.412 198.568C225.53 198.867 225.69 199.128 225.892 199.352C226.106 199.576 226.362 199.752 226.66 199.88C226.97 200.008 227.316 200.072 227.7 200.072C228.223 200.072 228.676 199.949 229.06 199.704C229.455 199.459 229.759 199.107 229.972 198.648L230.884 199.304C230.618 199.869 230.202 200.328 229.636 200.68C229.071 201.021 228.399 201.192 227.62 201.192ZM227.62 193.624C227.268 193.624 226.948 193.688 226.66 193.816C226.372 193.933 226.122 194.104 225.908 194.328C225.706 194.552 225.546 194.819 225.428 195.128C225.311 195.427 225.252 195.757 225.252 196.12V196.232H229.812V196.056C229.812 195.32 229.61 194.733 229.204 194.296C228.81 193.848 228.282 193.624 227.62 193.624ZM239.298 201C238.818 201 238.471 200.872 238.258 200.616C238.055 200.36 237.927 200.04 237.874 199.656H237.794C237.612 200.168 237.314 200.552 236.898 200.808C236.482 201.064 235.986 201.192 235.41 201.192C234.535 201.192 233.852 200.968 233.362 200.52C232.882 200.072 232.642 199.464 232.642 198.696C232.642 197.917 232.924 197.32 233.49 196.904C234.066 196.488 234.956 196.28 236.161 196.28H237.794V195.464C237.794 194.877 237.634 194.429 237.314 194.12C236.994 193.811 236.503 193.656 235.842 193.656C235.34 193.656 234.919 193.768 234.578 193.992C234.247 194.216 233.97 194.515 233.746 194.888L232.978 194.168C233.202 193.72 233.559 193.341 234.049 193.032C234.54 192.712 235.159 192.552 235.906 192.552C236.908 192.552 237.687 192.797 238.242 193.288C238.796 193.779 239.074 194.461 239.074 195.336V199.88H240.017V201H239.298ZM235.618 200.104C235.938 200.104 236.231 200.067 236.498 199.992C236.764 199.917 236.994 199.811 237.186 199.672C237.378 199.533 237.527 199.373 237.634 199.192C237.74 199.011 237.794 198.813 237.794 198.6V197.24H236.098C235.362 197.24 234.823 197.347 234.482 197.56C234.151 197.773 233.986 198.083 233.986 198.488V198.824C233.986 199.229 234.13 199.544 234.418 199.768C234.716 199.992 235.116 200.104 235.618 200.104ZM242.817 201.192C242.475 201.192 242.225 201.107 242.065 200.936C241.915 200.765 241.841 200.541 241.841 200.264V200.056C241.841 199.779 241.915 199.555 242.065 199.384C242.225 199.213 242.475 199.128 242.817 199.128C243.158 199.128 243.403 199.213 243.553 199.384C243.713 199.555 243.793 199.779 243.793 200.056V200.264C243.793 200.541 243.713 200.765 243.553 200.936C243.403 201.107 243.158 201.192 242.817 201.192Z" fill="black"/>
</svg>
